<svg id="Layer_1" data-name="Layer 1" xmlns="http://www.w3.org/2000/svg" viewBox="0 0 328 490.7"><defs><style>.cls-1{fill:#231f20;}.cls-2{fill:#eb4a24;}</style></defs><title>scalelogo</title><path class="cls-1" d="M1001.27,1206.87c11.63-25.6,21.58-52.17,20.69-80.64l-10.3,2.79c1.85,3,.33-2,.35-.33a17.56,17.56,0,0,0,.44,2.85c.34,1.76.86,3.49,1.37,5.2,1.71,5.76,3.76,11.43,5.84,17.07,7.88,21.33,16.73,42.32,25.75,63.19,10.58,24.49,23.3,47.66,35.75,71.22s24.21,47.09,35.77,70.92c3.1,6.39,12.64.8,9.54-5.58-16.73-34.5-34.54-68.35-52.51-102.21-16.38-30.88-29.7-63.5-42-96.18-2.59-6.85-5.15-13.75-7.27-20.77-.57-1.86-1.06-3.73-1.52-5.62s0-.17-.12-.56a13.72,13.72,0,0,0-1.81-4.78c-2.8-4.49-10.48-2.87-10.3,2.79.83,26.48-8.35,51.22-19.18,75.06-2.92,6.43,6.6,12,9.54,5.58Z" transform="translate(-860 -1120.85)"/><path class="cls-1" d="M911.31,1388.11c2.51-13.76,5.85-27.86,11.4-40.74,4.59-10.65,11.28-20.61,17.26-30.51,15.55-25.75,31.88-51.18,45.94-77.78,3.32-6.28-6.21-11.87-9.54-5.58-14.31,27.08-31,52.93-46.76,79.14-6.24,10.35-13,20.69-17.61,31.88-5.35,13-8.83,26.86-11.35,40.65-1.27,7,9.38,9.94,10.66,2.94Z" transform="translate(-860 -1120.85)"/><path class="cls-2" d="M905.7,1389.58c.19-4.43.64.11,1.39-4,0,0,17.47-30.85,55.13-67.66,3.14,33.41,15.1,59,19.45,78.07,7.9-24.51,23.64-70.74,33.92-94.36,4.5,24.7,14.18,49,18.08,67.83,5.11,24.76,9.75,30.37,15.87,55.84,9.66-19.54,22.48-85.52,28-103.1,12.73,22,33.39,53.08,39.18,77.82,3.31-12.82,5.33-43,5.33-43,.43,1.12,2.71,7.1,3.14,8.24.31.84.61,1.69.9,2.54,17.45,51.24,20,104.54-108.12,104.46h0C914.91,1474.31,903.74,1434.75,905.7,1389.58Z" transform="translate(-860 -1120.85)"/><path class="cls-1" d="M911.23,1389.58l-1.23,1.76-5.38,1.43c5.41,1.11,6.41-3.12,8.47-6.52,2.73-4.47,5.68-8.82,8.7-13.09a381.82,381.82,0,0,1,44.33-51.37l-9.43-3.91a238.47,238.47,0,0,0,9.23,45.1c3.45,11.48,7.68,22.76,10.42,34.44,1.31,5.55,9.06,4.95,10.66,0,10.09-31.26,20.31-62.87,33.36-93l-10.1-1.32c4.29,22.82,13,44.41,17.91,67.06,4.17,19.24,11.38,37.51,16,56.61,1.08,4.41,8,5.64,10.1,1.32,8-16.45,11.68-35.27,15.94-52.91,4.15-17.13,7.4-34.66,12.61-51.51l-10.1,1.32c14.16,24.38,31.83,48.74,38.62,76.5,1.29,5.27,9.36,5.25,10.66,0,3.56-14.39,4.53-29.68,5.53-44.44l-10.85,1.47c6.55,17.25,13.11,35.6,12.38,54.33-.68,17.72-10.45,31.27-26,39.47-28.76,15.2-65.31,14.87-96.89,14.5-26-.31-58.88-2.2-79-21.17-15.37-14.51-16.88-36.14-16-56,.29-7.12-10.76-7.1-11.06,0-.83,20.18,1,41.56,14,58,17.38,22,48.13,27.6,74.43,29.55a374.3,374.3,0,0,0,65-.94c15.75-1.59,31.65-4.28,46.37-10.29,19.28-7.87,35.47-22.15,39.19-43.45,4-22.78-3.74-45.84-11.74-66.88-2.2-5.79-10.42-5-10.85,1.47-.94,13.8-1.8,28-5.14,41.5H1122c-7-28.72-25.09-53.92-39.74-79.14-2.44-4.21-8.71-3.16-10.1,1.32-5.07,16.4-8.25,33.45-12.27,50.13-4.11,17.07-7.46,35.74-15.16,51.65l10.1,1.32c-4.66-19.1-11.87-37.37-16-56.61-4.9-22.64-13.62-44.24-17.91-67.06-.83-4.43-8.23-5.64-10.1-1.32-13.44,31.07-24.09,63.49-34.48,95.68H987c-2.62-11.14-6.6-21.92-9.94-32.85-4.36-14.3-7.83-28.85-9.32-43.75-.46-4.6-5.78-7.5-9.43-3.91a406.93,406.93,0,0,0-42.92,49.26c-5,6.83-10,13.84-13.64,21.36l3.3-2.54c2.75.16,3.34.14,1.78,0a4.16,4.16,0,0,0-2.21.1,6.13,6.13,0,0,0-2.52,1.48c-1.67,1.63-1.77,3.8-1.93,6C899.68,1396.67,910.73,1396.64,911.23,1389.58Z" transform="translate(-860 -1120.85)"/><path class="cls-1" d="M860,1528.67v75.62c0,3.56,5.53,3.56,5.53,0v-75.62c0-3.56-5.53-3.57-5.53,0Z" transform="translate(-860 -1120.85)"/><path class="cls-1" d="M860.73,1532.52l3,46.94c.22,3.53,5.75,3.56,5.52,0l-3-46.94c-.22-3.53-5.75-3.56-5.53,0Z" transform="translate(-860 -1120.85)"/><path class="cls-1" d="M866.2,1521.49l-.38,80.6c0,3.55,5.51,3.56,5.53,0l.37-80.6c0-3.56-5.51-3.56-5.52,0Z" transform="translate(-860 -1120.85)"/><path class="cls-1" d="M866.53,1530.26a134.46,134.46,0,0,1,35-12.29c3.48-.71,2-6-1.47-5.33a140.11,140.11,0,0,0-36.36,12.85c-3.16,1.63-.37,6.4,2.79,4.77Z" transform="translate(-860 -1120.85)"/><path class="cls-1" d="M870.53,1537.89a105.55,105.55,0,0,0,27.48-6.56c2.21-.86,4.91-1.55,6.13-3.77,1.63-3,.58-7.81.55-11,0-3.55-5.56-3.56-5.52,0,0,2.68.89,6.72-.8,8.55s-6.33,2.62-8.57,3.32a100.53,100.53,0,0,1-19.27,4c-3.5.38-3.54,5.91,0,5.53Z" transform="translate(-860 -1120.85)"/><path class="cls-1" d="M869.67,1535.52q14.82-4.45,29.13-10.34c3.24-1.33,1.82-6.68-1.47-5.33q-14.33,5.88-29.13,10.35c-3.4,1-2,6.35,1.47,5.32Z" transform="translate(-860 -1120.85)"/><path class="cls-1" d="M874.57,1528.79q10.26-1.79,20.33-4.33c3.45-.87,2-6.2-1.47-5.33q-10.08,2.55-20.32,4.33c-3.5.6-2,5.93,1.46,5.33Z" transform="translate(-860 -1120.85)"/><path class="cls-1" d="M871.26,1567.3a217.89,217.89,0,0,0,25.19-6.09c3.39-1,1.94-6.38-1.47-5.33a217.89,217.89,0,0,1-25.19,6.09c-3.5.62-2,6,1.47,5.33Z" transform="translate(-860 -1120.85)"/><path class="cls-1" d="M869.45,1573.1a35.82,35.82,0,0,0,22.7-4.82c3.07-1.8.29-6.58-2.79-4.77a30.88,30.88,0,0,1-19.91,4.07c-3.53-.43-3.49,5.1,0,5.52Z" transform="translate(-860 -1120.85)"/><path class="cls-1" d="M872.13,1569.35a35.43,35.43,0,0,0,27.06-8.37c2.73-2.28-1.2-6.17-3.91-3.9a30,30,0,0,1-23.15,6.74c-3.53-.4-3.5,5.13,0,5.53Z" transform="translate(-860 -1120.85)"/><path class="cls-1" d="M884.17,1571.2a48.45,48.45,0,0,0,13.43-5c3.12-1.7.34-6.48-2.79-4.77a43.45,43.45,0,0,1-12.1,4.39c-3.49.72-2,6.05,1.46,5.33Z" transform="translate(-860 -1120.85)"/><path class="cls-1" d="M870.35,1534.55l-.53,68.6c0,3.55,5.5,3.56,5.52,0l.54-68.6c0-3.55-5.5-3.56-5.53,0Z" transform="translate(-860 -1120.85)"/><path class="cls-1" d="M961.39,1522.11c-30.45-.61-42.76,33.33-39.53,58.83,1.31,10.37,6.87,21.26,18.79,20.68,12.08-.58,23.32-9.33,28.29-20.09,2.74-5.94,3.32-12.37,3.59-18.83.34-8.24,1.12-16.75.71-25-.22-4.56-1.44-9.59-5.82-11.87-5-2.64-13.42-1.53-18.9-.77-29,4.05-33.95,45.13-25.53,67.45,1.91,5.09,4.39,9.1,10.12,9.93s11.89-1.37,16.77-4c12.11-6.56,19.53-19.09,22.46-32.24,2.53-11.35,5.3-29.47-7-36.2-10.84-6-23,.45-29.09,10-7.2,11.16-10.18,29.76-4.75,42.11,4.7,10.68,16.43,16.54,27.29,11,11.28-5.76,17.95-19.31,19.8-31.34,1.71-11.13.54-27.58-10.42-33.86-12.68-7.26-27.67,1.32-35.41,11.79A48.1,48.1,0,0,0,925,1578.4c3.06,13,13.3,23.69,27.45,21.73,14.84-2.07,23.22-15.46,24.7-29.38.29-2.7-4-3.81-5.15-1.4-3.9,8.23-8.25,17.19-15.93,22.58-6.93,4.86-17.1,6-23.54-.25-2.54-2.49-6.46,1.42-3.9,3.9,7.08,6.91,17.66,7.38,26.38,3.32,10.86-5.07,16.87-16.43,21.77-26.76l-5.15-1.39c-1.1,10.27-6.84,20.6-17.41,23.42-11,2.93-19.66-4.15-23-14.22-5.81-17.3,2.06-41.86,20.48-48.09,4.51-1.52,9.57-1.6,13.8.79,5.3,3,7,9.46,7.81,15.08a44.13,44.13,0,0,1-5.57,28.74c-5.35,9.07-16.61,18.58-26.56,9.69-8.34-7.46-7.24-20.3-5.09-30.19s8.39-23,20.48-22.76c14.47.27,12.88,17.8,11.22,27.89s-5.64,19.93-13.14,27.1a33,33,0,0,1-12.13,7.5,21.83,21.83,0,0,1-7.13,1.36c-4.59-.07-6.27-3.85-7.61-7.7a57.15,57.15,0,0,1-2-29.71c1.9-9.48,6.24-21.43,15.15-26.48,4.44-2.52,9.67-3,14.68-3.07,2.15,0,5-.42,7.07.11,4.3,1.09,5,4.43,5.08,8.23a199.25,199.25,0,0,1-1.25,31.37c-1.41,10.91-8.22,20.53-18.66,24.58-5.34,2.07-11.79,3-16-1.8-3.38-3.86-4.36-9.67-4.76-14.61-1.76-21.75,8-50.87,34.3-50.34,3.56.07,3.56-5.46,0-5.53Z" transform="translate(-860 -1120.85)"/><path class="cls-1" d="M993.41,1531.24c12.13,24.88,32.74,47.68,32.83,76.77a2.81,2.81,0,0,0,2.77,2.77c3.81-.09,9.46,1,12.83-1.1,3.11-1.93,2.36-5.49,2-8.65-1.1-9-4.7-16.27-9.55-23.78-5.31-8.22-11.59-15.09-17.91-22.47a90.51,90.51,0,0,1-16.89-30.1l-4.06,3.12a11.41,11.41,0,0,0,9.29,1.87l-3.4-1.93a57.2,57.2,0,0,0,6.42,18.24c3.36,5.92,8.21,10.84,11.44,16.83,6.92,12.82,6,28.28,5.2,42.34a2.83,2.83,0,0,0,2,2.66,8.89,8.89,0,0,0,10.5-3.4c3.24-4.47,1.91-10.12,0-14.83-4.79-11.83-11.81-22.72-19.82-32.6-2.24-2.77-6.13,1.17-3.91,3.91a132.23,132.23,0,0,1,12.85,18.94c1.68,3,3.25,6.12,4.69,9.27,1.34,3,5.71,16.74-2.84,13.38l2,2.67c.75-13.76,1.35-28.18-4.08-41.16-2.53-6-6.6-10.79-10.31-16.09a53.34,53.34,0,0,1-8.87-21.63c-.28-1.56-2-2.17-3.4-1.93a5.48,5.48,0,0,1-5-1.31c-2-1.38-4.81.91-4.06,3.12a97.46,97.46,0,0,0,11.68,23.88c4.53,6.64,10.28,12.08,15.31,18.29a110.14,110.14,0,0,1,13.85,21.07,37.42,37.42,0,0,1,3.19,10.75c.5,3.34,1.57,4.48-1.66,4.94a62.3,62.3,0,0,1-7.49.17l2.76,2.76c-.1-30.28-21-53.67-33.59-79.56-1.55-3.2-6.32-.4-4.77,2.79Z" transform="translate(-860 -1120.85)"/><path class="cls-1" d="M1007.7,1608.57a93.4,93.4,0,0,1,9.6-22.56c4.22-7.07,9.67-13.22,14.27-20a103.16,103.16,0,0,0,16.28-42c.28-1.85-1.21-4.21-3.4-3.4a42.13,42.13,0,0,1-8.34,2.18,2.66,2.66,0,0,0-1.92,1.93c-1.65,6.85-2.78,14.53-6.53,20.62-4.06,6.62-9.26,12.63-13.55,19.14-8.75,13.29-15.55,27.49-18.78,43.15a2.81,2.81,0,0,0,2.66,3.5l5.8.43a2.8,2.8,0,0,0,2.76-2.77c1-29,24.18-50.76,32.42-77.6h-5.33c4.77,16.45-12.7,28-21.65,39a101.79,101.79,0,0,0-19,37.26l5.33,1.47c3.52-22,21.06-37.54,32.12-55.82,1.85-3-2.93-5.83-4.77-2.79-11.33,18.73-29.07,34.63-32.68,57.14-.55,3.43,4.37,5,5.33,1.47a99,99,0,0,1,25-43c9.46-9.78,19.9-21.5,15.64-36.18a2.79,2.79,0,0,0-5.33,0c-8.45,27.52-31.55,49.14-32.61,79.07l2.76-2.76-5.8-.43,2.67,3.5c3.39-16.44,10.83-31,20.23-44.82,4.16-6.1,9.63-11.92,12.84-18.57,3-6.12,4.21-13,5.78-19.53l-1.93,1.93a41.43,41.43,0,0,0,8.34-2.17l-3.4-3.4a99.74,99.74,0,0,1-18,43.84c-9.45,13-17.76,25.1-22.19,40.73-1,3.43,4.36,4.89,5.33,1.47Z" transform="translate(-860 -1120.85)"/><path class="cls-1" d="M1068.61,1528q-.58,38.42,1.62,76.78c.2,3.53,5.73,3.56,5.52,0q-2.2-38.35-1.61-76.78c0-3.56-5.47-3.56-5.53,0Z" transform="translate(-860 -1120.85)"/><path class="cls-1" d="M1071.87,1529.94a128.36,128.36,0,0,1,36.28,1.89c3.47.69,5-4.64,1.47-5.33a133.19,133.19,0,0,0-37.75-2.08c-3.51.31-3.54,5.83,0,5.52Z" transform="translate(-860 -1120.85)"/><path class="cls-1" d="M1070.77,1541.58l26.19-.13c6.26,0,12.93.68,18.5-2.68,3-1.84.26-6.62-2.79-4.77-5.53,3.34-13.87,1.91-20.07,1.94l-21.83.12c-3.55,0-3.56,5.54,0,5.52Z" transform="translate(-860 -1120.85)"/><path class="cls-1" d="M1072.4,1533.83a182.85,182.85,0,0,0,45.29-2.57c3.5-.63,2-6-1.47-5.33a176.77,176.77,0,0,1-43.82,2.37c-3.55-.24-3.53,5.29,0,5.53Z" transform="translate(-860 -1120.85)"/><path class="cls-1" d="M1069.7,1536.19q22-.23,44,.12c3.55,0,3.56-5.47,0-5.53q-22-.35-44-.11c-3.55,0-3.56,5.56,0,5.52Z" transform="translate(-860 -1120.85)"/><path class="cls-1" d="M1075.14,1531.25q-1,31.68.74,63.36c.19,3.54,5.72,3.56,5.53,0q-1.71-31.66-.75-63.36c.11-3.56-5.42-3.56-5.52,0Z" transform="translate(-860 -1120.85)"/><path class="cls-1" d="M1080.18,1530.17q.72,37.86.28,75.71c0,3.56,5.49,3.56,5.53,0q.45-37.86-.29-75.71c-.06-3.55-5.59-3.56-5.52,0Z" transform="translate(-860 -1120.85)"/><path class="cls-1" d="M1073.46,1610.18q19.33.45,38.67-.29c3.54-.14,3.56-5.66,0-5.53q-19.34.75-38.67.29c-3.55-.08-3.55,5.45,0,5.53Z" transform="translate(-860 -1120.85)"/><path class="cls-1" d="M1081,1603.26q12.9.23,25.77-.61c3.53-.23,3.55-5.76,0-5.53q-12.88.84-25.77.61c-3.56-.06-3.56,5.47,0,5.53Z" transform="translate(-860 -1120.85)"/><path class="cls-1" d="M1069.78,1543.06a367.94,367.94,0,0,0,.76,45.65c.28,3.52,5.8,3.55,5.52,0a369.9,369.9,0,0,1-.75-45.65c.16-3.55-5.36-3.55-5.53,0Z" transform="translate(-860 -1120.85)"/><path class="cls-1" d="M1072.34,1597c.48,2.43-.6,5,1.12,7.1,1.49,1.82,3.43,1.72,5.56,1.55,9.47-.77,19.16-3.31,28.37-5.53,3.46-.84,2-6.17-1.47-5.33-6,1.45-12.08,2.76-18.18,3.86-2.22.4-5.94,1.79-8.15,1.36s-1.11.18-1.6-1.93c-.17-.77-.16-1.76-.32-2.55-.69-3.48-6-2-5.33,1.47Z" transform="translate(-860 -1120.85)"/><path class="cls-1" d="M1090.28,1597.29l11.89,0c.77,0,4.85-.59,5.4,0,1.21,1.33-1.6,1.21-3,1.52-7.51,1.71-15,3.36-22.54,5-3.51.79-2,6,1.47,5.33a175,175,0,0,1,24.17-2.62c3.55-.14,3.57-5.67,0-5.53a185.5,185.5,0,0,0-25.64,2.82l1.47,5.33,20.49-4.57c3.84-.86,9.67-1.41,11.06-5.93a5.09,5.09,0,0,0-3.78-6.68c-2.87-.73-6.21-.23-9.15-.24l-11.89,0c-3.55,0-3.56,5.51,0,5.52Z" transform="translate(-860 -1120.85)"/><path class="cls-1" d="M1082.59,1566.76H1110c3.56,0,3.56-5.53,0-5.53h-27.38c-3.56,0-3.56,5.53,0,5.53Z" transform="translate(-860 -1120.85)"/><path class="cls-1" d="M1081,1572.77a230.4,230.4,0,0,1,32.6,1,2.77,2.77,0,0,0,2.67-3.49c-2.36-6.56-2.72-8.75-10-8.26a159,159,0,0,1-26.81-.54c-3.54-.36-3.51,5.17,0,5.52a163.15,163.15,0,0,0,18.23.89c2.86,0,5.73-.15,8.58-.34,1.26-.09,2.61-.47,3.33.23.52.51,1.16,3.41,1.36,4l2.66-3.5a228.93,228.93,0,0,0-32.6-1c-3.54.15-3.56,5.68,0,5.53Z" transform="translate(-860 -1120.85)"/><path class="cls-1" d="M1084.74,1596.81l4.82.63c1.48.2,2.76-1.41,2.76-2.76a2.82,2.82,0,0,0-2.76-2.76l-4.82-.64c-1.48-.19-2.76,1.41-2.76,2.76a2.83,2.83,0,0,0,2.76,2.77Z" transform="translate(-860 -1120.85)"/><path class="cls-1" d="M1113.81,1605.34v-2.15a2.77,2.77,0,0,0-5.53,0v2.15a2.77,2.77,0,0,0,5.53,0Z" transform="translate(-860 -1120.85)"/><path class="cls-1" d="M1134.91,1527.75a382.86,382.86,0,0,0,1,53.76q.58,6.43,1.39,12.84c.34,2.68.15,6.37,2.26,8.37,3.53,3.35,11.49,0,15.36-1.22,12.87-4.18,24.67-12.69,30-25.43,5-11.94,3.85-25.43-4.49-35.53-10-12.14-26.41-20-42.17-17.39-3.51.57-2,5.9,1.46,5.33,14.85-2.44,32.8,7.16,39.81,20.45,7.37,14,.32,30.88-11.53,39.78a52.72,52.72,0,0,1-19.7,8.88c-1.37.32-3.85,1.38-5.06.29-.94-.84-.83-6.55-1-7.8-.45-3.93-.84-7.85-1.16-11.79a382.25,382.25,0,0,1-.75-50.54c.17-3.55-5.35-3.55-5.53,0Z" transform="translate(-860 -1120.85)"/><path class="cls-1" d="M1141.27,1526.13a401.87,401.87,0,0,0,4.28,70.52c.52,3.51,5.84,2,5.32-1.47a393.8,393.8,0,0,1-4.07-69c.1-3.55-5.43-3.55-5.53,0Z" transform="translate(-860 -1120.85)"/><path class="cls-1" d="M1140,1532v35.44c0,3.56,5.53,3.56,5.53,0V1532c0-3.55-5.53-3.56-5.53,0Z" transform="translate(-860 -1120.85)"/><path class="cls-1" d="M1140,1564.79v14c0,3.55,5.53,3.56,5.53,0v-14c0-3.56-5.53-3.57-5.53,0Z" transform="translate(-860 -1120.85)"/><path class="cls-1" d="M1140.6,1588.41a22.6,22.6,0,0,0,.54,7.73c.83,3.45,6.16,2,5.33-1.47a17.82,17.82,0,0,1-.34-6.26,2.79,2.79,0,0,0-2.77-2.76,2.82,2.82,0,0,0-2.76,2.76Z" transform="translate(-860 -1120.85)"/><path class="cls-1" d="M1144.05,1595.86a36.8,36.8,0,0,0,16-8.4c2.66-2.36-1.26-6.26-3.91-3.91a31,31,0,0,1-13.58,7c-3.46.82-2,6.15,1.47,5.32Z" transform="translate(-860 -1120.85)"/><path class="cls-1" d="M1142.79,1532.71c7-.76,15.77,2.78,20.79,7.8s5.23,12.26,5.43,18.76c.21,6.72.17,13.28-4.14,18.84-4,5.14-9.94,8.33-15.93,10.58-3.3,1.24-1.87,6.58,1.47,5.33,7.24-2.72,14.31-6.53,19.06-12.81,5.26-7,5.36-15.2,5-23.59-.31-7.51-1.41-15.47-7-21-6-5.93-16.29-10.34-24.7-9.43-3.49.38-3.53,5.91,0,5.53Z" transform="translate(-860 -1120.85)"/><path class="cls-1" d="M1149.76,1597.22c14.11-.39,25-13.86,28.84-26.42,4.25-13.77.65-28.36-8.29-39.4l-2.69,4.61a6.93,6.93,0,0,1,4.24,2.89c2.33,2.69,6.23-1.23,3.91-3.91a13.51,13.51,0,0,0-6.68-4.3c-2.87-.91-4.29,2.64-2.69,4.61a37,37,0,0,1,7.35,32.36c-2.78,10.68-11.88,23.7-24,24-3.55.1-3.57,5.62,0,5.53Z" transform="translate(-860 -1120.85)"/><path class="cls-1" d="M1175.19,1550.14c2.6,5.67,1,11.81-.68,17.5-1.59,5.49-3.27,11-4.91,16.43-1,3.42,4.31,4.87,5.33,1.47,3.52-11.77,10.57-26.09,5-38.19-1.48-3.23-6.25-.42-4.78,2.79Z" transform="translate(-860 -1120.85)"/><circle class="cls-1" cx="129.87" cy="100.01" r="5.64"/></svg>