<?xml version="1.0" encoding="utf-8"?>
<!-- Generator: Adobe Illustrator 22.1.0, SVG Export Plug-In . SVG Version: 6.00 Build 0)  -->
<svg version="1.1" id="Layer_1" xmlns="http://www.w3.org/2000/svg" xmlns:xlink="http://www.w3.org/1999/xlink" x="0px" y="0px"
	 viewBox="0 0 328 561.9" style="enable-background:new 0 0 328 561.9;" xml:space="preserve">
<style type="text/css">
	.st0{fill:#FFFFFF;}
	.st1{fill:#231F20;}
	.st2{fill:#EB4A24;}
	.st3{fill:#EA6126;}
	.st4{fill:#F36B41;}
	.st5{font-family:'Nunito-Regular';}
	.st6{font-size:35.1376px;}
</style>
<g>
	<path class="st0" d="M58.4,249.3c1.8-11.1,6.4-31.4,12.5-43c9.1-17.4,32.1-54,47.8-82.5c37.2-67.7,37.9-97,37.1-112.1l1,1.5
		c0.1,4.8,11.3,33.9,36,86.2c13.7,29.1,27.1,47,66.9,123.4l1.2,3c0.3,0.8,0.6,1.5,0.9,2.3c17.1,46,20.4,94.2-98.2,96.6l0,0
		c-95.5,3.8-106.5-31.7-105.6-72.6c0.1-4,0.6,0.1,1.2-3.7L58.4,249.3z"/>
</g>
<title>scalelogo</title>
<path class="st1" d="M-554.7,86c11.6-25.6,21.6-52.2,20.7-80.6l-10.3,2.8c1.8,3,0.3-2,0.3-0.3c0.1,1,0.2,1.9,0.4,2.8
	c0.3,1.8,0.9,3.5,1.4,5.2c1.7,5.8,3.8,11.4,5.8,17.1c7.9,21.3,16.7,42.3,25.8,63.2c10.6,24.5,23.3,47.7,35.8,71.2
	s24.2,47.1,35.8,70.9c3.1,6.4,12.6,0.8,9.5-5.6c-16.7-34.5-34.5-68.3-52.5-102.2c-16.4-30.9-29.7-63.5-42-96.2
	c-2.6-6.8-5.2-13.8-7.3-20.8c-0.6-1.9-1.1-3.7-1.5-5.6s0-0.2-0.1-0.6c-0.3-1.7-0.9-3.3-1.8-4.8c-2.8-4.5-10.5-2.9-10.3,2.8
	c0.8,26.5-8.3,51.2-19.2,75.1C-567.2,86.9-557.6,92.4-554.7,86L-554.7,86z"/>
<path class="st1" d="M-644.7,267.3c2.5-13.8,5.8-27.9,11.4-40.7c4.6-10.7,11.3-20.6,17.3-30.5c15.5-25.8,31.9-51.2,45.9-77.8
	c3.3-6.3-6.2-11.9-9.5-5.6c-14.3,27.1-31,52.9-46.8,79.1c-6.2,10.3-13,20.7-17.6,31.9c-5.3,13-8.8,26.9-11.3,40.7
	C-656.6,271.3-646,274.3-644.7,267.3L-644.7,267.3z"/>
<path class="st2" d="M-650.3,268.7c0.2-4.4,0.6,0.1,1.4-4c0,0,17.5-30.8,55.1-67.7c3.1,33.4,15.1,59,19.5,78.1
	c7.9-24.5,23.6-70.7,33.9-94.4c4.5,24.7,14.2,49,18.1,67.8c5.1,24.8,9.8,30.4,15.9,55.8c9.7-19.5,22.5-85.5,28-103.1
	c12.7,22,33.4,53.1,39.2,77.8c3.3-12.8,5.3-43,5.3-43c0.4,1.1,2.7,7.1,3.1,8.2c0.3,0.8,0.6,1.7,0.9,2.5
	c17.4,51.2,20,104.5-108.1,104.5l0,0C-641.1,353.5-652.3,313.9-650.3,268.7z"/>
<path class="st1" d="M-644.8,268.7l-1.2,1.8l-5.4,1.4c5.4,1.1,6.4-3.1,8.5-6.5c2.7-4.5,5.7-8.8,8.7-13.1
	c13.2-18.4,28.1-35.6,44.3-51.4l-9.4-3.9c1.6,15.3,4.7,30.4,9.2,45.1c3.5,11.5,7.7,22.8,10.4,34.4c1.3,5.6,9.1,4.9,10.7,0
	c10.1-31.3,20.3-62.9,33.4-93l-10.1-1.3c4.3,22.8,13,44.4,17.9,67.1c4.2,19.2,11.4,37.5,16,56.6c1.1,4.4,8,5.6,10.1,1.3
	c8-16.4,11.7-35.3,15.9-52.9c4.2-17.1,7.4-34.7,12.6-51.5l-10.1,1.3c14.2,24.4,31.8,48.7,38.6,76.5c1.3,5.3,9.4,5.2,10.7,0
	c3.6-14.4,4.5-29.7,5.5-44.4l-10.8,1.5c6.6,17.2,13.1,35.6,12.4,54.3c-0.7,17.7-10.4,31.3-26,39.5c-28.8,15.2-65.3,14.9-96.9,14.5
	c-26-0.3-58.9-2.2-79-21.2C-644.2,310.3-645.7,288.7-644.8,268.7c0.2-7.1-10.8-7-11.1,0.1c-0.8,20.2,1,41.6,14,58
	c17.4,22,48.1,27.6,74.4,29.6c21.7,1.6,43.4,1.3,65-0.9c15.8-1.6,31.7-4.3,46.4-10.3c19.3-7.9,35.5-22.2,39.2-43.4
	c4-22.8-3.7-45.8-11.7-66.9c-2.2-5.8-10.4-5-10.8,1.5c-0.9,13.8-1.8,28-5.1,41.5h10.6c-7-28.7-25.1-53.9-39.7-79.1
	c-2.4-4.2-8.7-3.2-10.1,1.3c-5.1,16.4-8.2,33.4-12.3,50.1c-4.1,17.1-7.5,35.7-15.2,51.7l10.1,1.3c-4.7-19.1-11.9-37.4-16-56.6
	c-4.9-22.6-13.6-44.2-17.9-67.1c-0.8-4.4-8.2-5.6-10.1-1.3c-13.4,31.1-24.1,63.5-34.5,95.7h10.7c-2.6-11.1-6.6-21.9-9.9-32.8
	c-4.4-14.3-7.8-28.8-9.3-43.8c-0.5-4.6-5.8-7.5-9.4-3.9c-15.6,15.2-30,31.7-42.9,49.3c-5,6.8-10,13.8-13.6,21.4l3.3-2.5
	c2.8,0.2,3.3,0.1,1.8,0c-0.7-0.2-1.5-0.1-2.2,0.1c-0.9,0.3-1.8,0.8-2.5,1.5c-1.7,1.6-1.8,3.8-1.9,6
	C-656.3,275.8-645.3,275.8-644.8,268.7z"/>
<path class="st1" d="M-696,407.8v75.6c0,3.6,5.5,3.6,5.5,0v-75.6C-690.5,404.3-696,404.3-696,407.8z"/>
<path class="st1" d="M-695.3,411.7l3,46.9c0.2,3.5,5.8,3.6,5.5,0l-3-46.9C-690,408.1-695.5,408.1-695.3,411.7L-695.3,411.7z"/>
<path class="st1" d="M-689.8,400.6l-0.4,80.6c0,3.6,5.5,3.6,5.5,0l0.4-80.6C-684.3,397.1-689.8,397.1-689.8,400.6z"/>
<path class="st1" d="M-689.5,409.4c11-5.7,22.8-9.8,35-12.3c3.5-0.7,2-6-1.5-5.3c-12.7,2.6-24.9,6.9-36.4,12.8
	C-695.5,406.3-692.7,411-689.5,409.4L-689.5,409.4z"/>
<path class="st1" d="M-685.5,417c9.4-0.9,18.7-3.2,27.5-6.6c2.2-0.9,4.9-1.6,6.1-3.8c1.6-3,0.6-7.8,0.5-11c0-3.6-5.6-3.6-5.5,0
	c0,2.7,0.9,6.7-0.8,8.6s-6.3,2.6-8.6,3.3c-6.3,2-12.7,3.3-19.3,4C-689,412-689,417.5-685.5,417L-685.5,417z"/>
<path class="st1" d="M-686.3,414.7c9.9-3,19.6-6.4,29.1-10.3c3.2-1.3,1.8-6.7-1.5-5.3c-9.6,3.9-19.3,7.4-29.1,10.3
	C-691.2,410.4-689.8,415.7-686.3,414.7z"/>
<path class="st1" d="M-681.4,407.9c6.8-1.2,13.6-2.6,20.3-4.3c3.5-0.9,2-6.2-1.5-5.3c-6.7,1.7-13.5,3.1-20.3,4.3
	C-686.4,403.2-684.9,408.5-681.4,407.9L-681.4,407.9z"/>
<path class="st1" d="M-684.7,446.5c8.5-1.5,16.9-3.6,25.2-6.1c3.4-1,1.9-6.4-1.5-5.3c-8.3,2.5-16.7,4.6-25.2,6.1
	C-689.7,441.7-688.2,447.1-684.7,446.5z"/>
<path class="st1" d="M-686.5,452.2c7.9,1,15.9-0.7,22.7-4.8c3.1-1.8,0.3-6.6-2.8-4.8c-6,3.6-13,5-19.9,4.1
	C-690.1,446.3-690,451.8-686.5,452.2L-686.5,452.2z"/>
<path class="st1" d="M-683.9,448.5c9.8,1.1,19.6-1.9,27.1-8.4c2.7-2.3-1.2-6.2-3.9-3.9c-6.4,5.4-14.8,7.8-23.2,6.7
	C-687.4,442.6-687.4,448.1-683.9,448.5z"/>
<path class="st1" d="M-671.8,450.3c4.7-1,9.2-2.7,13.4-5c3.1-1.7,0.3-6.5-2.8-4.8c-3.8,2.1-7.9,3.5-12.1,4.4
	C-676.8,445.7-675.3,451-671.8,450.3L-671.8,450.3z"/>
<path class="st1" d="M-685.7,413.7l-0.5,68.6c0,3.6,5.5,3.6,5.5,0l0.5-68.6C-680.1,410.2-685.6,410.1-685.7,413.7L-685.7,413.7z"/>
<path class="st1" d="M-594.6,401.3c-30.5-0.6-42.8,33.3-39.5,58.8c1.3,10.4,6.9,21.3,18.8,20.7c12.1-0.6,23.3-9.3,28.3-20.1
	c2.7-5.9,3.3-12.4,3.6-18.8c0.3-8.2,1.1-16.8,0.7-25c-0.2-4.6-1.4-9.6-5.8-11.9c-5-2.6-13.4-1.5-18.9-0.8c-29,4.1-34,45.1-25.5,67.4
	c1.9,5.1,4.4,9.1,10.1,9.9s11.9-1.4,16.8-4c12.1-6.6,19.5-19.1,22.5-32.2c2.5-11.3,5.3-29.5-7-36.2c-10.8-6-23,0.4-29.1,10
	c-7.2,11.2-10.2,29.8-4.8,42.1c4.7,10.7,16.4,16.5,27.3,11c11.3-5.8,18-19.3,19.8-31.3c1.7-11.1,0.5-27.6-10.4-33.9
	c-12.7-7.3-27.7,1.3-35.4,11.8c-8,11.2-10.8,25.3-7.8,38.7c3.1,13,13.3,23.7,27.5,21.7c14.8-2.1,23.2-15.5,24.7-29.4
	c0.3-2.7-4-3.8-5.2-1.4c-3.9,8.2-8.2,17.2-15.9,22.6c-6.9,4.9-17.1,6-23.5-0.2c-2.5-2.5-6.5,1.4-3.9,3.9c7.1,6.9,17.7,7.4,26.4,3.3
	c10.9-5.1,16.9-16.4,21.8-26.8l-5.2-1.4c-1.1,10.3-6.8,20.6-17.4,23.4c-11,2.9-19.7-4.2-23-14.2c-5.8-17.3,2.1-41.9,20.5-48.1
	c4.5-1.5,9.6-1.6,13.8,0.8c5.3,3,7,9.5,7.8,15.1c1.5,9.9-0.5,20.1-5.6,28.7c-5.3,9.1-16.6,18.6-26.6,9.7c-8.3-7.5-7.2-20.3-5.1-30.2
	s8.4-23,20.5-22.8c14.5,0.3,12.9,17.8,11.2,27.9s-5.6,19.9-13.1,27.1c-3.4,3.4-7.6,5.9-12.1,7.5c-2.3,0.8-4.7,1.3-7.1,1.4
	c-4.6-0.1-6.3-3.8-7.6-7.7c-3.3-9.6-4-19.8-2-29.7c1.9-9.5,6.2-21.4,15.2-26.5c4.4-2.5,9.7-3,14.7-3.1c2.2,0,5-0.4,7.1,0.1
	c4.3,1.1,5,4.4,5.1,8.2c0.4,10.5,0,21-1.2,31.4c-1.4,10.9-8.2,20.5-18.7,24.6c-5.3,2.1-11.8,3-16-1.8c-3.4-3.9-4.4-9.7-4.8-14.6
	c-1.8-21.8,8-50.9,34.3-50.3C-591.1,406.9-591.1,401.3-594.6,401.3L-594.6,401.3z"/>
<path class="st1" d="M-562.6,410.4c12.1,24.9,32.7,47.7,32.8,76.8c0,1.5,1.2,2.7,2.8,2.8c3.8-0.1,9.5,1,12.8-1.1
	c3.1-1.9,2.4-5.5,2-8.7c-1.1-9-4.7-16.3-9.6-23.8c-5.3-8.2-11.6-15.1-17.9-22.5c-7.5-8.9-13.2-19.1-16.9-30.1l-4.1,3.1
	c2.7,1.9,6.1,2.6,9.3,1.9l-3.4-1.9c1.1,6.4,3.3,12.6,6.4,18.2c3.4,5.9,8.2,10.8,11.4,16.8c6.9,12.8,6,28.3,5.2,42.3
	c0,1.2,0.8,2.3,2,2.7c3.9,1.4,8.2,0,10.5-3.4c3.2-4.5,1.9-10.1,0-14.8c-4.8-11.8-11.8-22.7-19.8-32.6c-2.2-2.8-6.1,1.2-3.9,3.9
	c4.8,5.9,9.1,12.3,12.8,18.9c1.7,3,3.2,6.1,4.7,9.3c1.3,3,5.7,16.7-2.8,13.4l2,2.7c0.8-13.8,1.3-28.2-4.1-41.2
	c-2.5-6-6.6-10.8-10.3-16.1c-4.5-6.5-7.5-13.9-8.9-21.6c-0.3-1.6-2-2.2-3.4-1.9c-1.8,0.4-3.7-0.1-5-1.3c-2-1.4-4.8,0.9-4.1,3.1
	c2.8,8.5,6.7,16.5,11.7,23.9c4.5,6.6,10.3,12.1,15.3,18.3c5.4,6.5,10.1,13.5,13.8,21.1c1.6,3.4,2.7,7,3.2,10.8
	c0.5,3.3,1.6,4.5-1.7,4.9c-2.5,0.2-5,0.3-7.5,0.2l2.8,2.8c-0.1-30.3-21-53.7-33.6-79.6C-559.4,404.4-564.1,407.2-562.6,410.4
	L-562.6,410.4z"/>
<path class="st1" d="M-548.3,487.7c2.2-7.9,5.4-15.5,9.6-22.6c4.2-7.1,9.7-13.2,14.3-20c8.5-12.6,14-27,16.3-42
	c0.3-1.8-1.2-4.2-3.4-3.4c-2.7,1-5.5,1.7-8.3,2.2c-0.9,0.2-1.7,1-1.9,1.9c-1.7,6.8-2.8,14.5-6.5,20.6c-4.1,6.6-9.3,12.6-13.5,19.1
	c-8.8,13.3-15.5,27.5-18.8,43.2c-0.4,1.5,0.5,3,2,3.4c0.2,0.1,0.4,0.1,0.6,0.1l5.8,0.4c1.5,0,2.7-1.3,2.8-2.8
	c1-29,24.2-50.8,32.4-77.6h-5.3c4.8,16.4-12.7,28-21.7,39c-8.8,11-15.3,23.7-19,37.3l5.3,1.5c3.5-22,21.1-37.5,32.1-55.8
	c1.8-3-2.9-5.8-4.8-2.8c-11.3,18.7-29.1,34.6-32.7,57.1c-0.5,3.4,4.4,5,5.3,1.5c4.5-16.2,13.1-31,25-43c9.5-9.8,19.9-21.5,15.6-36.2
	c-0.5-1.5-2-2.3-3.5-1.8c-0.9,0.3-1.6,1-1.8,1.8c-8.4,27.5-31.5,49.1-32.6,79.1l2.8-2.8l-5.8-0.4l2.7,3.5
	c3.4-16.4,10.8-31,20.2-44.8c4.2-6.1,9.6-11.9,12.8-18.6c3-6.1,4.2-13,5.8-19.5l-1.9,1.9c2.8-0.4,5.6-1.2,8.3-2.2l-3.4-3.4
	c-2.4,15.8-8.6,30.9-18,43.8c-9.5,13-17.8,25.1-22.2,40.7C-554.7,489.7-549.3,491.2-548.3,487.7L-548.3,487.7z"/>
<path class="st1" d="M-487.4,407.2c-0.4,25.6,0.2,51.2,1.6,76.8c0.2,3.5,5.7,3.6,5.5,0c-1.5-25.6-2-51.2-1.6-76.8
	C-481.9,403.6-487.3,403.6-487.4,407.2z"/>
<path class="st1" d="M-484.1,409.1c12.1-1.1,24.3-0.5,36.3,1.9c3.5,0.7,5-4.6,1.5-5.3c-12.4-2.5-25.1-3.2-37.8-2.1
	C-487.6,403.9-487.7,409.4-484.1,409.1L-484.1,409.1z"/>
<path class="st1" d="M-485.2,420.7l26.2-0.1c6.3,0,12.9,0.7,18.5-2.7c3-1.8,0.3-6.6-2.8-4.8c-5.5,3.3-13.9,1.9-20.1,1.9l-21.8,0.1
	C-488.8,415.2-488.8,420.7-485.2,420.7L-485.2,420.7z"/>
<path class="st1" d="M-483.6,413c15.1,1,30.4,0.2,45.3-2.6c3.5-0.6,2-6-1.5-5.3c-14.5,2.6-29.2,3.4-43.8,2.4
	C-487.1,407.2-487.1,412.7-483.6,413L-483.6,413z"/>
<path class="st1" d="M-486.3,415.3c14.7-0.2,29.3-0.1,44,0.1c3.6,0,3.6-5.5,0-5.5c-14.7-0.2-29.3-0.3-44-0.1
	C-489.9,409.8-489.9,415.4-486.3,415.3z"/>
<path class="st1" d="M-480.9,410.4c-0.7,21.1-0.4,42.2,0.7,63.4c0.2,3.5,5.7,3.6,5.5,0c-1.1-21.1-1.4-42.2-0.8-63.4
	C-475.2,406.8-480.8,406.8-480.9,410.4z"/>
<path class="st1" d="M-475.8,409.3c0.5,25.2,0.6,50.5,0.3,75.7c0,3.6,5.5,3.6,5.5,0c0.3-25.2,0.2-50.5-0.3-75.7
	C-470.4,405.8-475.9,405.8-475.8,409.3z"/>
<path class="st1" d="M-482.5,489.3c12.9,0.3,25.8,0.2,38.7-0.3c3.5-0.1,3.6-5.7,0-5.5c-12.9,0.5-25.8,0.6-38.7,0.3
	C-486.1,483.7-486.1,489.2-482.5,489.3z"/>
<path class="st1" d="M-475,482.4c8.6,0.2,17.2-0.1,25.8-0.6c3.5-0.2,3.6-5.8,0-5.5c-8.6,0.6-17.2,0.8-25.8,0.6
	C-478.6,476.8-478.6,482.3-475,482.4z"/>
<path class="st1" d="M-486.2,422.2c-0.7,15.2-0.4,30.5,0.8,45.7c0.3,3.5,5.8,3.6,5.5,0c-1.2-15.2-1.4-30.4-0.8-45.7
	C-480.5,418.7-486,418.7-486.2,422.2z"/>
<path class="st1" d="M-483.7,476.2c0.5,2.4-0.6,5,1.1,7.1c1.5,1.8,3.4,1.7,5.6,1.6c9.5-0.8,19.2-3.3,28.4-5.5c3.5-0.8,2-6.2-1.5-5.3
	c-6,1.4-12.1,2.8-18.2,3.9c-2.2,0.4-5.9,1.8-8.2,1.4s-1.1,0.2-1.6-1.9c-0.2-0.8-0.2-1.8-0.3-2.6C-479,471.2-484.3,472.7-483.7,476.2
	L-483.7,476.2z"/>
<path class="st1" d="M-465.7,476.4h11.9c0.8,0,4.8-0.6,5.4,0c1.2,1.3-1.6,1.2-3,1.5c-7.5,1.7-15,3.4-22.5,5c-3.5,0.8-2,6,1.5,5.3
	c8-1.4,16.1-2.3,24.2-2.6c3.6-0.1,3.6-5.7,0-5.5c-8.6,0.3-17.2,1.3-25.6,2.8l1.5,5.3l20.5-4.6c3.8-0.9,9.7-1.4,11.1-5.9
	c0.9-2.7-0.5-5.6-3.1-6.5c-0.2-0.1-0.4-0.1-0.7-0.2c-2.9-0.7-6.2-0.2-9.2-0.2h-11.9C-469.3,470.9-469.3,476.4-465.7,476.4
	L-465.7,476.4z"/>
<path class="st1" d="M-473.4,445.9h27.4c3.6,0,3.6-5.5,0-5.5h-27.4C-476.9,440.4-476.9,445.9-473.4,445.9L-473.4,445.9z"/>
<path class="st1" d="M-475,451.9c10.9-0.4,21.8-0.1,32.6,1c1.5,0,2.8-1.2,2.8-2.8c0-0.2,0-0.5-0.1-0.7c-2.4-6.6-2.7-8.8-10-8.3
	c-8.9,0.6-17.9,0.4-26.8-0.5c-3.5-0.4-3.5,5.2,0,5.5c6.1,0.6,12.1,0.9,18.2,0.9c2.9,0,5.7-0.2,8.6-0.3c1.3-0.1,2.6-0.5,3.3,0.2
	c0.5,0.5,1.2,3.4,1.4,4l2.7-3.5c-10.8-1.1-21.7-1.4-32.6-1C-478.5,446.6-478.5,452.1-475,451.9L-475,451.9z"/>
<path class="st1" d="M-471.3,476l4.8,0.6c1.5,0.2,2.8-1.4,2.8-2.8c0-1.5-1.2-2.7-2.8-2.8l-4.8-0.6c-1.5-0.2-2.8,1.4-2.8,2.8
	C-474,474.7-472.8,475.9-471.3,476z"/>
<path class="st1" d="M-442.2,484.5v-2.2c-0.1-1.5-1.4-2.7-2.9-2.6c-1.4,0.1-2.5,1.2-2.6,2.6v2.2c0.1,1.5,1.4,2.7,2.9,2.6
	C-443.4,487-442.3,485.9-442.2,484.5z"/>
<path class="st1" d="M-421.1,406.9c-0.9,17.9-0.6,35.9,1,53.8c0.4,4.3,0.8,8.6,1.4,12.8c0.3,2.7,0.2,6.4,2.3,8.4
	c3.5,3.3,11.5,0,15.4-1.2c12.9-4.2,24.7-12.7,30-25.4c5-11.9,3.8-25.4-4.5-35.5c-10-12.1-26.4-20-42.2-17.4c-3.5,0.6-2,5.9,1.5,5.3
	c14.8-2.4,32.8,7.2,39.8,20.4c7.4,14,0.3,30.9-11.5,39.8c-5.9,4.3-12.6,7.3-19.7,8.9c-1.4,0.3-3.8,1.4-5.1,0.3
	c-0.9-0.8-0.8-6.6-1-7.8c-0.4-3.9-0.8-7.8-1.2-11.8c-1.4-16.8-1.6-33.7-0.8-50.5c0.2-3.6-5.3-3.6-5.5,0L-421.1,406.9z"/>
<path class="st1" d="M-414.7,405.3c-0.6,23.6,0.8,47.2,4.3,70.5c0.5,3.5,5.8,2,5.3-1.5c-3.4-22.8-4.7-45.9-4.1-69
	C-409.1,401.8-414.6,401.8-414.7,405.3L-414.7,405.3z"/>
<path class="st1" d="M-416,411.2v35.4c0,3.6,5.5,3.6,5.5,0v-35.4C-410.5,407.6-416,407.6-416,411.2z"/>
<path class="st1" d="M-416,443.9v14c0,3.6,5.5,3.6,5.5,0v-14C-410.5,440.4-416,440.4-416,443.9z"/>
<path class="st1" d="M-415.4,467.6c-0.3,2.6-0.1,5.2,0.5,7.7c0.8,3.4,6.2,2,5.3-1.5c-0.5-2.1-0.6-4.2-0.3-6.3c0-1.5-1.2-2.7-2.8-2.8
	C-414.2,464.8-415.4,466-415.4,467.6z"/>
<path class="st1" d="M-411.9,475c5.9-1.4,11.4-4.3,16-8.4c2.7-2.4-1.3-6.3-3.9-3.9c-3.9,3.4-8.5,5.8-13.6,7
	C-416.9,470.5-415.4,475.8-411.9,475L-411.9,475z"/>
<path class="st1" d="M-413.2,411.9c7-0.8,15.8,2.8,20.8,7.8s5.2,12.3,5.4,18.8c0.2,6.7,0.2,13.3-4.1,18.8c-4,5.1-9.9,8.3-15.9,10.6
	c-3.3,1.2-1.9,6.6,1.5,5.3c7.2-2.7,14.3-6.5,19.1-12.8c5.3-7,5.4-15.2,5-23.6c-0.3-7.5-1.4-15.5-7-21c-6-5.9-16.3-10.3-24.7-9.4
	C-416.7,406.7-416.8,412.2-413.2,411.9L-413.2,411.9z"/>
<path class="st1" d="M-406.2,476.4c14.1-0.4,25-13.9,28.8-26.4c4.2-13.8,0.7-28.4-8.3-39.4l-2.7,4.6c1.7,0.4,3.2,1.4,4.2,2.9
	c2.3,2.7,6.2-1.2,3.9-3.9c-1.7-2.1-4.1-3.6-6.7-4.3c-2.9-0.9-4.3,2.6-2.7,4.6c7.4,9,10.1,21,7.3,32.4c-2.8,10.7-11.9,23.7-24,24
	C-409.8,470.9-409.8,476.4-406.2,476.4L-406.2,476.4z"/>
<path class="st1" d="M-380.8,429.3c2.6,5.7,1,11.8-0.7,17.5c-1.6,5.5-3.3,11-4.9,16.4c-1,3.4,4.3,4.9,5.3,1.5
	c3.5-11.8,10.6-26.1,5-38.2C-377.6,423.3-382.3,426.1-380.8,429.3L-380.8,429.3z"/>
<circle class="st1" cx="-566.1" cy="100" r="5.6"/>
<path class="st1" d="M-205.1,86c11.6-25.6,21.6-52.2,20.7-80.6l-10.3,2.8c1.8,3,0.3-2,0.3-0.3c0.1,1,0.2,1.9,0.4,2.8
	c0.3,1.8,0.9,3.5,1.4,5.2c1.7,5.8,3.8,11.4,5.8,17.1c7.9,21.3,16.7,42.3,25.8,63.2c10.6,24.5,23.3,47.7,35.8,71.2
	s24.2,47.1,35.8,70.9c3.1,6.4,12.6,0.8,9.5-5.6c-16.7-34.5-34.5-68.3-52.5-102.2c-16.4-30.9-29.7-63.5-42-96.2
	c-2.6-6.8-5.2-13.8-7.3-20.8c-0.6-1.9-1.1-3.7-1.5-5.6s0-0.2-0.1-0.6c-0.3-1.7-0.9-3.3-1.8-4.8c-2.8-4.5-10.5-2.9-10.3,2.8
	c0.8,26.5-8.3,51.2-19.2,75.1C-217.5,86.9-208,92.4-205.1,86L-205.1,86z"/>
<path class="st1" d="M-295.1,267.3c2.5-13.8,5.8-27.9,11.4-40.7c4.6-10.7,11.3-20.6,17.3-30.5c15.6-25.8,31.9-51.2,45.9-77.8
	c3.3-6.3-6.2-11.9-9.5-5.6c-14.3,27.1-31,52.9-46.8,79.1c-6.2,10.3-13,20.7-17.6,31.9c-5.3,13-8.8,26.9-11.3,40.7
	C-307,271.3-296.3,274.3-295.1,267.3L-295.1,267.3z"/>
<path class="st3" d="M-300.7,268.7c0.2-4.4,0.6,0.1,1.4-4c0,0,17.5-30.8,55.1-67.7c3.1,33.4,15.1,59,19.5,78.1
	c7.9-24.5,23.6-70.7,33.9-94.4c4.5,24.7,14.2,49,18.1,67.8c5.1,24.8,9.8,30.4,15.9,55.8c9.7-19.5,22.5-85.5,28-103.1
	c12.7,22,33.4,53.1,39.2,77.8c3.3-12.8,5.3-43,5.3-43c0.4,1.1,2.7,7.1,3.1,8.2c0.3,0.8,0.6,1.7,0.9,2.5
	c17.4,51.2,20,104.5-108.1,104.5l0,0C-291.5,353.5-302.6,313.9-300.7,268.7z"/>
<path class="st1" d="M-295.1,268.7l-1.2,1.8l-5.4,1.4c5.4,1.1,6.4-3.1,8.5-6.5c2.7-4.5,5.7-8.8,8.7-13.1
	c13.2-18.4,28.1-35.6,44.3-51.4l-9.4-3.9c1.6,15.3,4.7,30.4,9.2,45.1c3.5,11.5,7.7,22.8,10.4,34.4c1.3,5.6,9.1,4.9,10.7,0
	c10.1-31.3,20.3-62.9,33.4-93l-10.1-1.3c4.3,22.8,13,44.4,17.9,67.1c4.2,19.2,11.4,37.5,16,56.6c1.1,4.4,8,5.6,10.1,1.3
	c8-16.4,11.7-35.3,15.9-52.9c4.2-17.1,7.4-34.7,12.6-51.5l-10.1,1.3c14.2,24.4,31.8,48.7,38.6,76.5c1.3,5.3,9.4,5.2,10.7,0
	c3.6-14.4,4.5-29.7,5.5-44.4l-10.8,1.5c6.6,17.2,13.1,35.6,12.4,54.3c-0.7,17.7-10.4,31.3-26,39.5c-28.8,15.2-65.3,14.9-96.9,14.5
	c-26-0.3-58.9-2.2-79-21.2C-294.6,310.3-296.1,288.7-295.1,268.7c0.2-7.1-10.8-7-11.1,0.1c-0.8,20.2,1,41.6,14,58
	c17.4,22,48.1,27.6,74.4,29.6c21.7,1.6,43.4,1.3,65-0.9c15.8-1.6,31.7-4.3,46.4-10.3c19.3-7.9,35.5-22.2,39.2-43.4
	c4-22.8-3.7-45.8-11.7-66.9c-2.2-5.8-10.4-5-10.8,1.5c-0.9,13.8-1.8,28-5.1,41.5h10.6c-7-28.7-25.1-53.9-39.7-79.1
	c-2.4-4.2-8.7-3.2-10.1,1.3c-5.1,16.4-8.2,33.4-12.3,50.1c-4.1,17.1-7.5,35.7-15.2,51.7l10.1,1.3c-4.7-19.1-11.9-37.4-16-56.6
	c-4.9-22.6-13.6-44.2-17.9-67.1c-0.8-4.4-8.2-5.6-10.1-1.3c-13.4,31.1-24.1,63.5-34.5,95.7h10.7c-2.6-11.1-6.6-21.9-9.9-32.8
	c-4.4-14.3-7.8-28.8-9.3-43.8c-0.5-4.6-5.8-7.5-9.4-3.9c-15.6,15.2-30,31.7-42.9,49.3c-5,6.8-10,13.8-13.6,21.4l3.3-2.5
	c2.8,0.2,3.3,0.1,1.8,0c-0.7-0.2-1.5-0.1-2.2,0.1c-0.9,0.3-1.8,0.8-2.5,1.5c-1.7,1.6-1.8,3.8-1.9,6
	C-306.7,275.8-295.6,275.8-295.1,268.7z"/>
<path class="st1" d="M-346.4,407.8v75.6c0,3.6,5.5,3.6,5.5,0v-75.6C-340.8,404.3-346.4,404.3-346.4,407.8z"/>
<path class="st1" d="M-345.6,411.7l3,46.9c0.2,3.5,5.8,3.6,5.5,0l-3-46.9C-340.3,408.1-345.9,408.1-345.6,411.7L-345.6,411.7z"/>
<path class="st1" d="M-340.2,400.6l-0.4,80.6c0,3.6,5.5,3.6,5.5,0l0.4-80.6C-334.6,397.1-340.2,397.1-340.2,400.6z"/>
<path class="st1" d="M-339.8,409.4c11-5.7,22.8-9.8,35-12.3c3.5-0.7,2-6-1.5-5.3c-12.7,2.6-24.9,6.9-36.4,12.8
	C-345.8,406.3-343,411-339.8,409.4L-339.8,409.4z"/>
<path class="st1" d="M-335.8,417c9.4-0.9,18.7-3.2,27.5-6.6c2.2-0.9,4.9-1.6,6.1-3.8c1.6-3,0.6-7.8,0.5-11c0-3.6-5.6-3.6-5.5,0
	c0,2.7,0.9,6.7-0.8,8.6s-6.3,2.6-8.6,3.3c-6.3,2-12.7,3.3-19.3,4C-339.3,412-339.4,417.5-335.8,417L-335.8,417z"/>
<path class="st1" d="M-336.7,414.7c9.9-3,19.6-6.4,29.1-10.3c3.2-1.3,1.8-6.7-1.5-5.3c-9.6,3.9-19.3,7.4-29.1,10.3
	C-341.6,410.4-340.2,415.7-336.7,414.7z"/>
<path class="st1" d="M-331.8,407.9c6.8-1.2,13.6-2.6,20.3-4.3c3.5-0.9,2-6.2-1.5-5.3c-6.7,1.7-13.5,3.1-20.3,4.3
	C-336.8,403.2-335.3,408.5-331.8,407.9L-331.8,407.9z"/>
<path class="st1" d="M-335.1,446.5c8.5-1.5,16.9-3.6,25.2-6.1c3.4-1,1.9-6.4-1.5-5.3c-8.3,2.5-16.7,4.6-25.2,6.1
	C-340.1,441.7-338.6,447.1-335.1,446.5z"/>
<path class="st1" d="M-336.9,452.2c7.9,1,15.9-0.7,22.7-4.8c3.1-1.8,0.3-6.6-2.8-4.8c-6,3.6-13,5-19.9,4.1
	C-340.4,446.3-340.4,451.8-336.9,452.2L-336.9,452.2z"/>
<path class="st1" d="M-334.2,448.5c9.8,1.1,19.6-1.9,27.1-8.4c2.7-2.3-1.2-6.2-3.9-3.9c-6.4,5.4-14.8,7.8-23.2,6.7
	C-337.8,442.6-337.7,448.1-334.2,448.5z"/>
<path class="st1" d="M-322.2,450.3c4.7-1,9.2-2.7,13.4-5c3.1-1.7,0.3-6.5-2.8-4.8c-3.8,2.1-7.9,3.5-12.1,4.4
	C-327.1,445.7-325.7,451-322.2,450.3L-322.2,450.3z"/>
<path class="st1" d="M-336,413.7l-0.5,68.6c0,3.6,5.5,3.6,5.5,0l0.5-68.6C-330.5,410.2-336,410.1-336,413.7L-336,413.7z"/>
<path class="st1" d="M-245,401.3c-30.5-0.6-42.8,33.3-39.5,58.8c1.3,10.4,6.9,21.3,18.8,20.7c12.1-0.6,23.3-9.3,28.3-20.1
	c2.7-5.9,3.3-12.4,3.6-18.8c0.3-8.2,1.1-16.8,0.7-25c-0.2-4.6-1.4-9.6-5.8-11.9c-5-2.6-13.4-1.5-18.9-0.8c-29,4.1-34,45.1-25.5,67.4
	c1.9,5.1,4.4,9.1,10.1,9.9s11.9-1.4,16.8-4c12.1-6.6,19.5-19.1,22.5-32.2c2.5-11.3,5.3-29.5-7-36.2c-10.8-6-23,0.4-29.1,10
	c-7.2,11.2-10.2,29.8-4.8,42.1c4.7,10.7,16.4,16.5,27.3,11c11.3-5.8,18-19.3,19.8-31.3c1.7-11.1,0.5-27.6-10.4-33.9
	c-12.7-7.3-27.7,1.3-35.4,11.8c-8,11.2-10.8,25.3-7.8,38.7c3.1,13,13.3,23.7,27.5,21.7c14.8-2.1,23.2-15.5,24.7-29.4
	c0.3-2.7-4-3.8-5.2-1.4c-3.9,8.2-8.2,17.2-15.9,22.6c-6.9,4.9-17.1,6-23.5-0.2c-2.5-2.5-6.5,1.4-3.9,3.9c7.1,6.9,17.7,7.4,26.4,3.3
	c10.9-5.1,16.9-16.4,21.8-26.8l-5.2-1.4c-1.1,10.3-6.8,20.6-17.4,23.4c-11,2.9-19.7-4.2-23-14.2c-5.8-17.3,2.1-41.9,20.5-48.1
	c4.5-1.5,9.6-1.6,13.8,0.8c5.3,3,7,9.5,7.8,15.1c1.5,9.9-0.5,20.1-5.6,28.7c-5.3,9.1-16.6,18.6-26.6,9.7c-8.3-7.5-7.2-20.3-5.1-30.2
	s8.4-23,20.5-22.8c14.5,0.3,12.9,17.8,11.2,27.9s-5.6,19.9-13.1,27.1c-3.4,3.4-7.6,5.9-12.1,7.5c-2.3,0.8-4.7,1.3-7.1,1.4
	c-4.6-0.1-6.3-3.8-7.6-7.7c-3.3-9.6-4-19.8-2-29.7c1.9-9.5,6.2-21.4,15.2-26.5c4.4-2.5,9.7-3,14.7-3.1c2.2,0,5-0.4,7.1,0.1
	c4.3,1.1,5,4.4,5.1,8.2c0.4,10.5,0,21-1.2,31.4c-1.4,10.9-8.2,20.5-18.7,24.6c-5.3,2.1-11.8,3-16-1.8c-3.4-3.9-4.4-9.7-4.8-14.6
	c-1.8-21.8,8-50.9,34.3-50.3C-241.4,406.9-241.4,401.3-245,401.3L-245,401.3z"/>
<path class="st1" d="M-213,410.4c12.1,24.9,32.7,47.7,32.8,76.8c0,1.5,1.2,2.7,2.8,2.8c3.8-0.1,9.5,1,12.8-1.1
	c3.1-1.9,2.4-5.5,2-8.7c-1.1-9-4.7-16.3-9.6-23.8c-5.3-8.2-11.6-15.1-17.9-22.5c-7.5-8.9-13.2-19.1-16.9-30.1l-4.1,3.1
	c2.7,1.9,6.1,2.6,9.3,1.9l-3.4-1.9c1.1,6.4,3.3,12.6,6.4,18.2c3.4,5.9,8.2,10.8,11.4,16.8c6.9,12.8,6,28.3,5.2,42.3
	c0,1.2,0.8,2.3,2,2.7c3.9,1.4,8.2,0,10.5-3.4c3.2-4.5,1.9-10.1,0-14.8c-4.8-11.8-11.8-22.7-19.8-32.6c-2.2-2.8-6.1,1.2-3.9,3.9
	c4.8,5.9,9.1,12.3,12.8,18.9c1.7,3,3.2,6.1,4.7,9.3c1.3,3,5.7,16.7-2.8,13.4l2,2.7c0.8-13.8,1.3-28.2-4.1-41.2
	c-2.5-6-6.6-10.8-10.3-16.1c-4.5-6.5-7.5-13.9-8.9-21.6c-0.3-1.6-2-2.2-3.4-1.9c-1.8,0.4-3.7-0.1-5-1.3c-2-1.4-4.8,0.9-4.1,3.1
	c2.8,8.5,6.7,16.5,11.7,23.9c4.5,6.6,10.3,12.1,15.3,18.3c5.4,6.5,10.1,13.5,13.8,21.1c1.6,3.4,2.7,7,3.2,10.8
	c0.5,3.3,1.6,4.5-1.7,4.9c-2.5,0.2-5,0.3-7.5,0.2l2.8,2.8c-0.1-30.3-21-53.7-33.6-79.6C-209.7,404.4-214.5,407.2-213,410.4
	L-213,410.4z"/>
<path class="st1" d="M-198.7,487.7c2.2-7.9,5.4-15.5,9.6-22.6c4.2-7.1,9.7-13.2,14.3-20c8.5-12.6,14-27,16.3-42
	c0.3-1.8-1.2-4.2-3.4-3.4c-2.7,1-5.5,1.7-8.3,2.2c-0.9,0.2-1.7,1-1.9,1.9c-1.7,6.8-2.8,14.5-6.5,20.6c-4.1,6.6-9.3,12.6-13.5,19.1
	c-8.8,13.3-15.5,27.5-18.8,43.2c-0.4,1.5,0.5,3,2,3.4c0.2,0.1,0.4,0.1,0.6,0.1l5.8,0.4c1.5,0,2.7-1.3,2.8-2.8
	c1-29,24.2-50.8,32.4-77.6h-5.3c4.8,16.4-12.7,28-21.7,39c-8.8,11-15.3,23.7-19,37.3l5.3,1.5c3.5-22,21.1-37.5,32.1-55.8
	c1.8-3-2.9-5.8-4.8-2.8c-11.3,18.7-29.1,34.6-32.7,57.1c-0.5,3.4,4.4,5,5.3,1.5c4.5-16.2,13.1-31,25-43c9.5-9.8,19.9-21.5,15.6-36.2
	c-0.5-1.5-2-2.3-3.5-1.8c-0.9,0.3-1.6,1-1.8,1.8c-8.4,27.5-31.5,49.1-32.6,79.1l2.8-2.8l-5.8-0.4l2.7,3.5
	c3.4-16.4,10.8-31,20.2-44.8c4.2-6.1,9.6-11.9,12.8-18.6c3-6.1,4.2-13,5.8-19.5l-1.9,1.9c2.8-0.4,5.6-1.2,8.3-2.2l-3.4-3.4
	c-2.4,15.8-8.6,30.9-18,43.8c-9.5,13-17.8,25.1-22.2,40.7C-205,489.7-199.7,491.2-198.7,487.7L-198.7,487.7z"/>
<path class="st1" d="M-137.8,407.2c-0.4,25.6,0.2,51.2,1.6,76.8c0.2,3.5,5.7,3.6,5.5,0c-1.5-25.6-2-51.2-1.6-76.8
	C-132.2,403.6-137.7,403.6-137.8,407.2z"/>
<path class="st1" d="M-134.5,409.1c12.1-1.1,24.3-0.5,36.3,1.9c3.5,0.7,5-4.6,1.5-5.3c-12.4-2.5-25.1-3.2-37.8-2.1
	C-138,403.9-138,409.4-134.5,409.1L-134.5,409.1z"/>
<path class="st1" d="M-135.6,420.7l26.2-0.1c6.3,0,12.9,0.7,18.5-2.7c3-1.8,0.3-6.6-2.8-4.8c-5.5,3.3-13.9,1.9-20.1,1.9l-21.8,0.1
	C-139.1,415.2-139.2,420.7-135.6,420.7L-135.6,420.7z"/>
<path class="st1" d="M-134,413c15.1,1,30.4,0.2,45.3-2.6c3.5-0.6,2-6-1.5-5.3c-14.5,2.6-29.2,3.4-43.8,2.4
	C-137.5,407.2-137.5,412.7-134,413L-134,413z"/>
<path class="st1" d="M-136.7,415.3c14.7-0.2,29.3-0.1,44,0.1c3.6,0,3.6-5.5,0-5.5c-14.7-0.2-29.3-0.3-44-0.1
	C-140.2,409.8-140.2,415.4-136.7,415.3z"/>
<path class="st1" d="M-131.2,410.4c-0.7,21.1-0.4,42.2,0.7,63.4c0.2,3.5,5.7,3.6,5.5,0c-1.1-21.1-1.4-42.2-0.8-63.4
	C-125.6,406.8-131.1,406.8-131.2,410.4z"/>
<path class="st1" d="M-126.2,409.3c0.5,25.2,0.6,50.5,0.3,75.7c0,3.6,5.5,3.6,5.5,0c0.3-25.2,0.2-50.5-0.3-75.7
	C-120.7,405.8-126.3,405.8-126.2,409.3z"/>
<path class="st1" d="M-132.9,489.3c12.9,0.3,25.8,0.2,38.7-0.3c3.5-0.1,3.6-5.7,0-5.5c-12.9,0.5-25.8,0.6-38.7,0.3
	C-136.5,483.7-136.5,489.2-132.9,489.3z"/>
<path class="st1" d="M-125.4,482.4c8.6,0.2,17.2-0.1,25.8-0.6c3.5-0.2,3.6-5.8,0-5.5c-8.6,0.6-17.2,0.8-25.8,0.6
	C-128.9,476.8-128.9,482.3-125.4,482.4z"/>
<path class="st1" d="M-136.6,422.2c-0.7,15.2-0.4,30.5,0.8,45.7c0.3,3.5,5.8,3.6,5.5,0c-1.2-15.2-1.4-30.4-0.8-45.7
	C-130.9,418.7-136.4,418.7-136.6,422.2z"/>
<path class="st1" d="M-134,476.2c0.5,2.4-0.6,5,1.1,7.1c1.5,1.8,3.4,1.7,5.6,1.6c9.5-0.8,19.2-3.3,28.4-5.5c3.5-0.8,2-6.2-1.5-5.3
	c-6,1.4-12.1,2.8-18.2,3.9c-2.2,0.4-5.9,1.8-8.2,1.4s-1.1,0.2-1.6-1.9c-0.2-0.8-0.2-1.8-0.3-2.6C-129.4,471.2-134.7,472.7-134,476.2
	L-134,476.2z"/>
<path class="st1" d="M-116.1,476.4h11.9c0.8,0,4.8-0.6,5.4,0c1.2,1.3-1.6,1.2-3,1.5c-7.5,1.7-15,3.4-22.5,5c-3.5,0.8-2,6,1.5,5.3
	c8-1.4,16.1-2.3,24.2-2.6c3.6-0.1,3.6-5.7,0-5.5c-8.6,0.3-17.2,1.3-25.6,2.8l1.5,5.3l20.5-4.6c3.8-0.9,9.7-1.4,11.1-5.9
	c0.9-2.7-0.5-5.6-3.1-6.5c-0.2-0.1-0.4-0.1-0.7-0.2c-2.9-0.7-6.2-0.2-9.2-0.2h-11.9C-119.7,470.9-119.7,476.4-116.1,476.4
	L-116.1,476.4z"/>
<path class="st1" d="M-123.8,445.9h27.4c3.6,0,3.6-5.5,0-5.5h-27.4C-127.3,440.4-127.3,445.9-123.8,445.9L-123.8,445.9z"/>
<path class="st1" d="M-125.4,451.9c10.9-0.4,21.8-0.1,32.6,1c1.5,0,2.8-1.2,2.8-2.8c0-0.2,0-0.5-0.1-0.7c-2.4-6.6-2.7-8.8-10-8.3
	c-8.9,0.6-17.9,0.4-26.8-0.5c-3.5-0.4-3.5,5.2,0,5.5c6.1,0.6,12.1,0.9,18.2,0.9c2.9,0,5.7-0.2,8.6-0.3c1.3-0.1,2.6-0.5,3.3,0.2
	c0.5,0.5,1.2,3.4,1.4,4l2.7-3.5c-10.8-1.1-21.7-1.4-32.6-1C-128.9,446.6-128.9,452.1-125.4,451.9L-125.4,451.9z"/>
<path class="st1" d="M-121.6,476l4.8,0.6c1.5,0.2,2.8-1.4,2.8-2.8c0-1.5-1.2-2.7-2.8-2.8l-4.8-0.6c-1.5-0.2-2.8,1.4-2.8,2.8
	C-124.4,474.7-123.1,475.9-121.6,476z"/>
<path class="st1" d="M-92.6,484.5v-2.2c-0.1-1.5-1.4-2.7-2.9-2.6c-1.4,0.1-2.5,1.2-2.6,2.6v2.2c0.1,1.5,1.4,2.7,2.9,2.6
	C-93.8,487-92.6,485.9-92.6,484.5z"/>
<path class="st1" d="M-71.5,406.9c-0.9,17.9-0.6,35.9,1,53.8c0.4,4.3,0.8,8.6,1.4,12.8c0.3,2.7,0.2,6.4,2.3,8.4
	c3.5,3.3,11.5,0,15.4-1.2c12.9-4.2,24.7-12.7,30-25.4c5-11.9,3.8-25.4-4.5-35.5c-10-12.1-26.4-20-42.2-17.4c-3.5,0.6-2,5.9,1.5,5.3
	c14.8-2.4,32.8,7.2,39.8,20.4c7.4,14,0.3,30.9-11.5,39.8c-5.9,4.3-12.6,7.3-19.7,8.9c-1.4,0.3-3.8,1.4-5.1,0.3
	c-0.9-0.8-0.8-6.6-1-7.8c-0.4-3.9-0.8-7.8-1.2-11.8c-1.4-16.8-1.6-33.7-0.8-50.5c0.2-3.6-5.3-3.6-5.5,0L-71.5,406.9z"/>
<path class="st1" d="M-65.1,405.3c-0.6,23.6,0.8,47.2,4.3,70.5c0.5,3.5,5.8,2,5.3-1.5c-3.4-22.8-4.7-45.9-4.1-69
	C-59.5,401.8-65,401.8-65.1,405.3L-65.1,405.3z"/>
<path class="st1" d="M-66.4,411.2v35.4c0,3.6,5.5,3.6,5.5,0v-35.4C-60.8,407.6-66.4,407.6-66.4,411.2z"/>
<path class="st1" d="M-66.4,443.9v14c0,3.6,5.5,3.6,5.5,0v-14C-60.8,440.4-66.4,440.4-66.4,443.9z"/>
<path class="st1" d="M-65.8,467.6c-0.3,2.6-0.1,5.2,0.5,7.7c0.8,3.4,6.2,2,5.3-1.5c-0.5-2.1-0.6-4.2-0.3-6.3c0-1.5-1.2-2.7-2.8-2.8
	C-64.5,464.8-65.7,466-65.8,467.6z"/>
<path class="st1" d="M-62.3,475c5.9-1.4,11.4-4.3,16-8.4c2.7-2.4-1.3-6.3-3.9-3.9c-3.9,3.4-8.5,5.8-13.6,7
	C-67.3,470.5-65.8,475.8-62.3,475L-62.3,475z"/>
<path class="st1" d="M-63.6,411.9c7-0.8,15.8,2.8,20.8,7.8s5.2,12.3,5.4,18.8c0.2,6.7,0.2,13.3-4.1,18.8c-4,5.1-9.9,8.3-15.9,10.6
	c-3.3,1.2-1.9,6.6,1.5,5.3c7.2-2.7,14.3-6.5,19.1-12.8c5.3-7,5.4-15.2,5-23.6c-0.3-7.5-1.4-15.5-7-21c-6-5.9-16.3-10.3-24.7-9.4
	C-67.1,406.7-67.1,412.2-63.6,411.9L-63.6,411.9z"/>
<path class="st1" d="M-56.6,476.4c14.1-0.4,25-13.9,28.8-26.4c4.2-13.8,0.7-28.4-8.3-39.4l-2.7,4.6c1.7,0.4,3.2,1.4,4.2,2.9
	c2.3,2.7,6.2-1.2,3.9-3.9c-1.7-2.1-4.1-3.6-6.7-4.3c-2.9-0.9-4.3,2.6-2.7,4.6c7.4,9,10.1,21,7.3,32.4c-2.8,10.7-11.9,23.7-24,24
	C-60.2,470.9-60.2,476.4-56.6,476.4L-56.6,476.4z"/>
<path class="st1" d="M-31.2,429.3c2.6,5.7,1,11.8-0.7,17.5c-1.6,5.5-3.3,11-4.9,16.4c-1,3.4,4.3,4.9,5.3,1.5
	c3.5-11.8,10.6-26.1,5-38.2C-27.9,423.3-32.7,426.1-31.2,429.3L-31.2,429.3z"/>
<circle class="st1" cx="-216.5" cy="100" r="5.6"/>
<path class="st1" d="M142.9,86c11.6-25.6,21.6-52.2,20.7-80.6l-10.3,2.8c1.8,3,0.3-2,0.3-0.3c0.1,1,0.2,1.9,0.4,2.8
	c0.3,1.8,0.9,3.5,1.4,5.2c1.7,5.8,3.8,11.4,5.8,17.1c7.9,21.3,16.7,42.3,25.8,63.2c10.6,24.5,23.3,47.7,35.8,71.2
	s24.2,47.1,35.8,70.9c3.1,6.4,12.6,0.8,9.5-5.6c-16.7-34.5-34.5-68.3-52.5-102.2c-16.4-30.9-29.7-63.5-42-96.2
	c-2.6-6.8-5.2-13.8-7.3-20.8c-0.6-1.9-1.1-3.7-1.5-5.6s0-0.2-0.1-0.6c-0.3-1.7-0.9-3.3-1.8-4.8c-2.8-4.5-10.5-2.9-10.3,2.8
	c0.8,26.5-8.3,51.2-19.2,75.1C130.5,86.9,140,92.4,142.9,86L142.9,86z"/>
<path class="st1" d="M52.9,267.3c2.5-13.8,5.8-27.9,11.4-40.7c4.6-10.7,11.3-20.6,17.3-30.5c15.5-25.8,31.9-51.2,45.9-77.8
	c3.3-6.3-6.2-11.9-9.5-5.6c-14.3,27.1-31,52.9-46.8,79.1c-6.2,10.3-13,20.7-17.6,31.9c-5.3,13-8.8,26.9-11.3,40.7
	C41,271.3,51.7,274.3,52.9,267.3L52.9,267.3z"/>
<path class="st4" d="M47.3,268.7c0.2-4.4,0.6,0.1,1.4-4c0,0,17.5-30.8,55.1-67.7c3.1,33.4,15.1,59,19.5,78.1
	c7.9-24.5,23.6-70.7,33.9-94.4c4.5,24.7,14.2,49,18.1,67.8c5.1,24.8,9.8,30.4,15.9,55.8c9.7-19.5,22.5-85.5,28-103.1
	c12.7,22,33.4,53.1,39.2,77.8c3.3-12.8,5.3-43,5.3-43c0.4,1.1,2.7,7.1,3.1,8.2c0.3,0.8,0.6,1.7,0.9,2.5
	c17.4,51.2,20,104.5-108.1,104.5l0,0C56.5,353.5,45.4,313.9,47.3,268.7z"/>
<path class="st1" d="M49.5,274.5l3.1,9.5l0,0c-0.7-16.7,7.4-27.6,9.5-31c2.7-4.5,2.3-3.4,5.3-7.6c13.2-18.4,24.1-28.6,40.3-44.4
	l-9.4-3.9c1.6,15.3,4.7,30.4,9.2,45.1c3.5,11.5,7.7,22.8,10.4,34.4c1.3,5.6,9.1,4.9,10.7,0c10.1-31.3,20.3-62.9,33.4-93l-10.1-1.3
	c4.3,22.8,13,44.4,17.9,67.1c4.2,19.2,11.4,37.5,16,56.6c1.1,4.4,8,5.6,10.1,1.3c8-16.4,11.7-35.3,15.9-52.9
	c4.2-17.1,7.4-34.7,12.6-51.5l-10.1,1.3c14.2,24.4,31.8,48.7,38.6,76.5c1.3,5.3,9.4,5.2,10.7,0c3.6-14.4,4.5-29.7,5.5-44.4l-7.5,7.7
	c6.6,17.2,9.7,29.3,9,48.1c-0.7,17.7-10.4,31.3-26,39.5c-28.8,15.2-65.3,14.9-96.9,14.5c-26-0.3-58.9-2.2-79-21.2
	c-15.4-14.5-16.9-36.1-16-56c0.3-7.1-10.8-7.1-11.1,0c-0.8,20.2,1,41.6,14,58c17.4,22,48.1,27.6,74.4,29.6c21.7,1.6,43.4,1.3,65-0.9
	c15.8-1.6,31.7-4.3,46.4-10.3c19.3-7.9,35.5-22.2,39.2-43.4c4-22.8-3.7-45.8-11.7-66.9c-2.2-5.8-18.4-20.1-18.8-13.6
	c11.5,22.8,6.1,43.1,2.8,56.6h10.6c-7-28.7-25.1-53.9-39.7-79.1c-2.4-4.2-8.7-3.2-10.1,1.3c-5.1,16.4-8.2,33.4-12.3,50.1
	c-4.1,17.1-7.5,35.7-15.2,51.7l10.1,1.3c-4.7-19.1-11.9-37.4-16-56.6c-4.9-22.6-13.6-44.2-17.9-67.1c-0.8-4.4-8.2-5.6-10.1-1.3
	c-13.4,31.1-24.1,63.5-34.5,95.7h10.7c-2.6-11.1-6.6-21.9-9.9-32.8c-4.4-14.3-7.8-28.8-9.3-43.8c-0.5-4.6-5.8-7.5-9.4-3.9
	c-15.6,15.2-30,31.7-42.9,49.3c-5,6.8-10,13.8-13.6,21.4l3.3-2.5c2.8,0.2,3.3,0.1,1.8,0c-0.7-0.2-1.5-0.1-2.2,0.1
	c-0.9,0.3-1.8,0.8-2.5,1.5c-1.7,1.6-1.8,3.8-1.9,6C41.3,275.8,49,281.5,49.5,274.5z"/>
<path class="st1" d="M1.6,407.8v75.6c0,3.6,5.5,3.6,5.5,0v-75.6C7.2,404.3,1.6,404.3,1.6,407.8z"/>
<path class="st1" d="M2.4,411.7l3,46.9c0.2,3.5,5.8,3.6,5.5,0l-3-46.9C7.7,408.1,2.1,408.1,2.4,411.7L2.4,411.7z"/>
<path class="st1" d="M7.8,400.6l-0.4,80.6c0,3.6,5.5,3.6,5.5,0l0.4-80.6C13.4,397.1,7.8,397.1,7.8,400.6z"/>
<path class="st1" d="M8.2,409.4c11-5.7,22.8-9.8,35-12.3c3.5-0.7,2-6-1.5-5.3c-12.7,2.6-24.9,6.9-36.4,12.8
	C2.2,406.3,5,411,8.2,409.4L8.2,409.4z"/>
<path class="st1" d="M12.2,417c9.4-0.9,18.7-3.2,27.5-6.6c2.2-0.9,4.9-1.6,6.1-3.8c1.6-3,0.6-7.8,0.5-11c0-3.6-5.6-3.6-5.5,0
	c0,2.7,0.9,6.7-0.8,8.6s-6.3,2.6-8.6,3.3c-6.3,2-12.7,3.3-19.3,4C8.7,412,8.6,417.5,12.2,417L12.2,417z"/>
<path class="st1" d="M11.3,414.7c9.9-3,19.6-6.4,29.1-10.3c3.2-1.3,1.8-6.7-1.5-5.3c-9.6,3.9-19.3,7.4-29.1,10.3
	C6.4,410.4,7.8,415.7,11.3,414.7z"/>
<path class="st1" d="M16.2,407.9c6.8-1.2,13.6-2.6,20.3-4.3c3.5-0.9,2-6.2-1.5-5.3c-6.7,1.7-13.5,3.1-20.3,4.3
	C11.2,403.2,12.7,408.5,16.2,407.9L16.2,407.9z"/>
<path class="st1" d="M12.9,446.5c8.5-1.5,16.9-3.6,25.2-6.1c3.4-1,1.9-6.4-1.5-5.3c-8.3,2.5-16.7,4.6-25.2,6.1
	C7.9,441.7,9.4,447.1,12.9,446.5z"/>
<path class="st1" d="M11.1,452.2c7.9,1,15.9-0.7,22.7-4.8c3.1-1.8,0.3-6.6-2.8-4.8c-6,3.6-13,5-19.9,4.1
	C7.6,446.3,7.6,451.8,11.1,452.2L11.1,452.2z"/>
<path class="st1" d="M13.8,448.5c9.8,1.1,19.6-1.9,27.1-8.4c2.7-2.3-1.2-6.2-3.9-3.9c-6.4,5.4-14.8,7.8-23.2,6.7
	C10.2,442.6,10.3,448.1,13.8,448.5z"/>
<path class="st1" d="M25.8,450.3c4.7-1,9.2-2.7,13.4-5c3.1-1.7,0.3-6.5-2.8-4.8c-3.8,2.1-7.9,3.5-12.1,4.4
	C20.9,445.7,22.3,451,25.8,450.3L25.8,450.3z"/>
<path class="st1" d="M12,413.7l-0.5,68.6c0,3.6,5.5,3.6,5.5,0l0.5-68.6C17.5,410.2,12,410.1,12,413.7L12,413.7z"/>
<path class="st1" d="M103,401.3c-30.5-0.6-42.8,33.3-39.5,58.8c1.3,10.4,6.9,21.3,18.8,20.7c12.1-0.6,23.3-9.3,28.3-20.1
	c2.7-5.9,3.3-12.4,3.6-18.8c0.3-8.2,1.1-16.8,0.7-25c-0.2-4.6-1.4-9.6-5.8-11.9c-5-2.6-13.4-1.5-18.9-0.8c-29,4.1-34,45.1-25.5,67.4
	c1.9,5.1,4.4,9.1,10.1,9.9s11.9-1.4,16.8-4c12.1-6.6,19.5-19.1,22.5-32.2c2.5-11.3,5.3-29.5-7-36.2c-10.8-6-23,0.4-29.1,10
	c-7.2,11.2-10.2,29.8-4.8,42.1c4.7,10.7,16.4,16.5,27.3,11c11.3-5.8,18-19.3,19.8-31.3c1.7-11.1,0.5-27.6-10.4-33.9
	c-12.7-7.3-27.7,1.3-35.4,11.8c-8,11.2-10.8,25.3-7.8,38.7c3.1,13,13.3,23.7,27.5,21.7c14.8-2.1,23.2-15.5,24.7-29.4
	c0.3-2.7-4-3.8-5.2-1.4c-3.9,8.2-8.2,17.2-15.9,22.6c-6.9,4.9-17.1,6-23.5-0.2c-2.5-2.5-6.5,1.4-3.9,3.9c7.1,6.9,17.7,7.4,26.4,3.3
	c10.9-5.1,16.9-16.4,21.8-26.8l-5.2-1.4c-1.1,10.3-6.8,20.6-17.4,23.4c-11,2.9-19.7-4.2-23-14.2c-5.8-17.3,2.1-41.9,20.5-48.1
	c4.5-1.5,9.6-1.6,13.8,0.8c5.3,3,7,9.5,7.8,15.1c1.5,9.9-0.5,20.1-5.6,28.7c-5.3,9.1-16.6,18.6-26.6,9.7c-8.3-7.5-7.2-20.3-5.1-30.2
	s8.4-23,20.5-22.8c14.5,0.3,12.9,17.8,11.2,27.9s-5.6,19.9-13.1,27.1c-3.4,3.4-7.6,5.9-12.1,7.5c-2.3,0.8-4.7,1.3-7.1,1.4
	c-4.6-0.1-6.3-3.8-7.6-7.7c-3.3-9.6-4-19.8-2-29.7c1.9-9.5,6.2-21.4,15.2-26.5c4.4-2.5,9.7-3,14.7-3.1c2.2,0,5-0.4,7.1,0.1
	c4.3,1.1,5,4.4,5.1,8.2c0.4,10.5,0,21-1.2,31.4c-1.4,10.9-8.2,20.5-18.7,24.6c-5.3,2.1-11.8,3-16-1.8c-3.4-3.9-4.4-9.7-4.8-14.6
	c-1.8-21.8,8-50.9,34.3-50.3C106.6,406.9,106.6,401.3,103,401.3L103,401.3z"/>
<path class="st1" d="M135,410.4c12.1,24.9,32.7,47.7,32.8,76.8c0,1.5,1.2,2.7,2.8,2.8c3.8-0.1,9.5,1,12.8-1.1c3.1-1.9,2.4-5.5,2-8.7
	c-1.1-9-4.7-16.3-9.6-23.8c-5.3-8.2-11.6-15.1-17.9-22.5c-7.5-8.9-13.2-19.1-16.9-30.1l-4.1,3.1c2.7,1.9,6.1,2.6,9.3,1.9l-3.4-1.9
	c1.1,6.4,3.3,12.6,6.4,18.2c3.4,5.9,8.2,10.8,11.4,16.8c6.9,12.8,6,28.3,5.2,42.3c0,1.2,0.8,2.3,2,2.7c3.9,1.4,8.2,0,10.5-3.4
	c3.2-4.5,1.9-10.1,0-14.8c-4.8-11.8-11.8-22.7-19.8-32.6c-2.2-2.8-6.1,1.2-3.9,3.9c4.8,5.9,9.1,12.3,12.8,18.9
	c1.7,3,3.2,6.1,4.7,9.3c1.3,3,5.7,16.7-2.8,13.4l2,2.7c0.8-13.8,1.3-28.2-4.1-41.2c-2.5-6-6.6-10.8-10.3-16.1
	c-4.5-6.5-7.5-13.9-8.9-21.6c-0.3-1.6-2-2.2-3.4-1.9c-1.8,0.4-3.7-0.1-5-1.3c-2-1.4-4.8,0.9-4.1,3.1c2.8,8.5,6.7,16.5,11.7,23.9
	c4.5,6.6,10.3,12.1,15.3,18.3c5.4,6.5,10.1,13.5,13.8,21.1c1.6,3.4,2.7,7,3.2,10.8c0.5,3.3,1.6,4.5-1.7,4.9c-2.5,0.2-5,0.3-7.5,0.2
	l2.8,2.8c-0.1-30.3-21-53.7-33.6-79.6C138.3,404.4,133.5,407.2,135,410.4L135,410.4z"/>
<path class="st1" d="M149.3,487.7c2.2-7.9,5.4-15.5,9.6-22.6c4.2-7.1,9.7-13.2,14.3-20c8.5-12.6,14-27,16.3-42
	c0.3-1.8-1.2-4.2-3.4-3.4c-2.7,1-5.5,1.7-8.3,2.2c-0.9,0.2-1.7,1-1.9,1.9c-1.7,6.8-2.8,14.5-6.5,20.6c-4.1,6.6-9.3,12.6-13.5,19.1
	c-8.8,13.3-15.5,27.5-18.8,43.2c-0.4,1.5,0.5,3,2,3.4c0.2,0.1,0.4,0.1,0.6,0.1l5.8,0.4c1.5,0,2.7-1.3,2.8-2.8
	c1-29,24.2-50.8,32.4-77.6h-5.3c4.8,16.4-12.7,28-21.7,39c-8.8,11-15.3,23.7-19,37.3l5.3,1.5c3.5-22,21.1-37.5,32.1-55.8
	c1.8-3-2.9-5.8-4.8-2.8c-11.3,18.7-29.1,34.6-32.7,57.1c-0.5,3.4,4.4,5,5.3,1.5c4.5-16.2,13.1-31,25-43c9.5-9.8,19.9-21.5,15.6-36.2
	c-0.5-1.5-2-2.3-3.5-1.8c-0.9,0.3-1.6,1-1.8,1.8c-8.4,27.5-31.5,49.1-32.6,79.1l2.8-2.8l-5.8-0.4l2.7,3.5
	c3.4-16.4,10.8-31,20.2-44.8c4.2-6.1,9.6-11.9,12.8-18.6c3-6.1,4.2-13,5.8-19.5l-1.9,1.9c2.8-0.4,5.6-1.2,8.3-2.2l-3.4-3.4
	c-2.4,15.8-8.6,30.9-18,43.8c-9.5,13-17.8,25.1-22.2,40.7C143,489.7,148.3,491.2,149.3,487.7L149.3,487.7z"/>
<path class="st1" d="M210.2,407.2c-0.4,25.6,0.2,51.2,1.6,76.8c0.2,3.5,5.7,3.6,5.5,0c-1.5-25.6-2-51.2-1.6-76.8
	C215.8,403.6,210.3,403.6,210.2,407.2z"/>
<path class="st1" d="M213.5,409.1c12.1-1.1,24.3-0.5,36.3,1.9c3.5,0.7,5-4.6,1.5-5.3c-12.4-2.5-25.1-3.2-37.8-2.1
	C210,403.9,210,409.4,213.5,409.1L213.5,409.1z"/>
<path class="st1" d="M212.4,419.7l26.2-0.1c1.8,0,17.4-2,18.5-2.7c3-1.8,0.3-6.6-2.8-4.8c-5.5,3.3-13.9,1.9-20.1,1.9l-21.8,0.1
	C208.9,414.2,208.8,419.7,212.4,419.7L212.4,419.7z"/>
<path class="st1" d="M214,413c15.1,1,30.4,0.2,45.3-2.6c3.5-0.6,2-6-1.5-5.3c-14.5,2.6-29.2,3.4-43.8,2.4
	C210.5,407.2,210.5,412.7,214,413L214,413z"/>
<path class="st1" d="M211.3,415.3c14.7-0.2,29.3-0.1,44,0.1c3.6,0,3.6-5.5,0-5.5c-14.7-0.2-29.3-0.3-44-0.1
	C207.8,409.8,207.8,415.4,211.3,415.3z"/>
<path class="st1" d="M216.8,410.4c-0.7,21.1-0.4,42.2,0.7,63.4c0.2,3.5,5.7,3.6,5.5,0c-1.1-21.1-1.4-42.2-0.8-63.4
	C222.4,406.8,216.9,406.8,216.8,410.4z"/>
<path class="st1" d="M219.8,409.3c0.5,25.2,0.6,50.5,0.3,75.7c0,3.6,5.5,3.6,5.5,0c0.3-25.2,0.2-50.5-0.3-75.7
	C225.3,405.8,219.7,405.8,219.8,409.3z"/>
<path class="st1" d="M215.1,489.3c12.9,0.3,25.8,0.2,38.7-0.3c3.5-0.1,3.6-5.7,0-5.5c-12.9,0.5-25.8,0.6-38.7,0.3
	C211.5,483.7,211.5,489.2,215.1,489.3z"/>
<path class="st1" d="M222.6,482.4c8.6,0.2,17.2-0.1,25.8-0.6c3.5-0.2,3.6-5.8,0-5.5c-8.6,0.6-17.2,0.8-25.8,0.6
	C219.1,476.8,219.1,482.3,222.6,482.4z"/>
<path class="st1" d="M211.4,422.2c-0.7,15.2-0.4,30.5,0.8,45.7c0.3,3.5,5.8,3.6,5.5,0c-1.2-15.2-1.4-30.4-0.8-45.7
	C217.1,418.7,211.6,418.7,211.4,422.2z"/>
<path class="st1" d="M214,476.2c0.5,2.4-0.6,5,1.1,7.1c1.5,1.8,3.4,1.7,5.6,1.6c9.5-0.8,19.2-3.3,28.4-5.5c3.5-0.8,2-6.2-1.5-5.3
	c-6,1.4-12.1,2.8-18.2,3.9c-2.2,0.4-5.9,1.8-8.2,1.4s-1.1,0.2-1.6-1.9c-0.2-0.8-0.2-1.8-0.3-2.6C218.6,471.2,213.3,472.7,214,476.2
	L214,476.2z"/>
<path class="st1" d="M233.9,476.9h11.9c0.8,0,4.8-0.5,5.4,0c1.2,1.2-1.6,1.1-3,1.3c-7.5,1.5-15,3-22.5,4.4c-3.5,0.7-2,5.3,1.5,4.7
	c8-1.3,16.1-2,24.2-2.3c3.6-0.1,3.6-5,0-4.9c-8.6,0.3-17.2,1.1-25.6,2.5l1.5,4.7l20.5-4c3.8-0.8,9.7-1.2,11.1-5.2
	c0.9-2.3-0.5-4.9-3.1-5.7c-0.2-0.1-0.4-0.1-0.7-0.2c-2.9-0.6-6.2-0.2-9.2-0.2h-11.9C230.3,472,230.3,476.8,233.9,476.9L233.9,476.9z
	"/>
<path class="st1" d="M224.2,445.9h27.4c3.6,0,3.6-5.5,0-5.5h-27.4C220.7,440.4,220.7,445.9,224.2,445.9L224.2,445.9z"/>
<path class="st1" d="M222.6,451.9c10.9-0.4,21.8-0.1,32.6,1c1.5,0,2.8-1.2,2.8-2.8c0-0.2,0-0.5-0.1-0.7c-2.4-6.6-2.7-8.8-10-8.3
	c-8.9,0.6-17.9,0.4-26.8-0.5c-3.5-0.4-3.5,5.2,0,5.5c6.1,0.6,12.1,0.9,18.2,0.9c2.9,0,5.7-0.2,8.6-0.3c1.3-0.1,2.6-0.5,3.3,0.2
	c0.5,0.5,1.2,3.4,1.4,4l2.7-3.5c-10.8-1.1-21.7-1.4-32.6-1C219.1,446.6,219.1,452.1,222.6,451.9L222.6,451.9z"/>
<path class="st1" d="M226.4,476l4.8,0.6c1.5,0.2,2.8-1.4,2.8-2.8c0-1.5-1.2-2.7-2.8-2.8l-4.8-0.6c-1.5-0.2-2.8,1.4-2.8,2.8
	C223.6,474.7,224.9,475.9,226.4,476z"/>
<path class="st1" d="M257.4,484.5v-2.2c-0.1-1.5-1.4-2.7-2.9-2.6c-1.4,0.1-2.5,1.2-2.6,2.6v2.2c0.1,1.5,1.4,2.7,2.9,2.6
	C256.2,487,257.4,485.9,257.4,484.5z"/>
<path class="st1" d="M276.5,406.9c-0.9,17.9-0.6,35.9,1,53.8c0.4,4.3,0.8,8.6,1.4,12.8c0.3,2.7,0.2,6.4,2.3,8.4
	c3.5,3.3,11.5,0,15.4-1.2c12.9-4.2,24.7-12.7,30-25.4c5-11.9,3.8-25.4-4.5-35.5c-10-12.1-26.4-20-42.2-17.4c-3.5,0.6-2,5.9,1.5,5.3
	c14.8-2.4,32.8,7.2,39.8,20.4c7.4,14,0.3,30.9-11.5,39.8c-5.9,4.3-12.6,7.3-19.7,8.9c-1.4,0.3-3.8,1.4-5.1,0.3
	c-0.9-0.8-0.8-6.6-1-7.8c-0.4-3.9-0.8-7.8-1.2-11.8c-1.4-16.8-1.6-33.7-0.8-50.5c0.2-3.6-5.3-3.6-5.5,0L276.5,406.9z"/>
<path class="st1" d="M282.9,405.3c-0.6,23.6,0.8,47.2,4.3,70.5c0.5,3.5,5.8,2,5.3-1.5c-3.4-22.8-4.7-45.9-4.1-69
	C288.5,401.8,283,401.8,282.9,405.3L282.9,405.3z"/>
<path class="st1" d="M281.6,411.2v35.4c0,3.6,5.5,3.6,5.5,0v-35.4C287.2,407.6,281.6,407.6,281.6,411.2z"/>
<path class="st1" d="M281.6,443.9v14c0,3.6,5.5,3.6,5.5,0v-14C287.2,440.4,281.6,440.4,281.6,443.9z"/>
<path class="st1" d="M282.2,467.6c-0.3,2.6-0.1,5.2,0.5,7.7c0.8,3.4,6.2,2,5.3-1.5c-0.5-2.1-0.6-4.2-0.3-6.3c0-1.5-1.2-2.7-2.8-2.8
	C283.5,464.8,282.3,466,282.2,467.6z"/>
<path class="st1" d="M285.7,475c5.9-1.4,11.4-4.3,16-8.4c2.7-2.4-1.3-6.3-3.9-3.9c-3.9,3.4-8.5,5.8-13.6,7
	C280.7,470.5,282.2,475.8,285.7,475L285.7,475z"/>
<path class="st1" d="M284.4,411.9c7-0.8,15.8,2.8,20.8,7.8s5.2,12.3,5.4,18.8c0.2,6.7,0.2,13.3-4.1,18.8c-4,5.1-9.9,8.3-15.9,10.6
	c-3.3,1.2-1.9,6.6,1.5,5.3c7.2-2.7,14.3-6.5,19.1-12.8c5.3-7,5.4-15.2,5-23.6c-0.3-7.5-1.4-15.5-7-21c-6-5.9-16.3-10.3-24.7-9.4
	C280.9,406.7,280.9,412.2,284.4,411.9L284.4,411.9z"/>
<path class="st1" d="M291.4,476.4c14.1-0.4,25-13.9,28.8-26.4c4.2-13.8,0.7-28.4-8.3-39.4l-2.7,4.6c1.7,0.4,3.2,1.4,4.2,2.9
	c2.3,2.7,6.2-1.2,3.9-3.9c-1.7-2.1-4.1-3.6-6.7-4.3c-2.9-0.9-4.3,2.6-2.7,4.6c7.4,9,10.1,21,7.3,32.4c-2.8,10.7-11.9,23.7-24,24
	C287.8,470.9,287.8,476.4,291.4,476.4L291.4,476.4z"/>
<path class="st1" d="M316.8,429.3c2.6,5.7,1,11.8-0.7,17.5c-1.6,5.5-3.3,11-4.9,16.4c-1,3.4,4.3,4.9,5.3,1.5
	c3.5-11.8,10.6-26.1,5-38.2C320.1,423.3,315.3,426.1,316.8,429.3L316.8,429.3z"/>
<circle class="st1" cx="131.5" cy="100" r="5.6"/>
<text transform="matrix(1 0 0 1 41.2822 550.0312)" class="st5 st6">drinking games</text>
</svg>
